<?xml version="1.0" encoding="UTF-8" standalone="no"?>
<!-- Created with Inkscape (http://www.inkscape.org/) -->

<svg
   xmlns:dc="http://purl.org/dc/elements/1.1/"
   xmlns:cc="http://creativecommons.org/ns#"
   xmlns:rdf="http://www.w3.org/1999/02/22-rdf-syntax-ns#"
   xmlns:svg="http://www.w3.org/2000/svg"
   xmlns="http://www.w3.org/2000/svg"
   xmlns:xlink="http://www.w3.org/1999/xlink"
   xmlns:sodipodi="http://sodipodi.sourceforge.net/DTD/sodipodi-0.dtd"
   xmlns:inkscape="http://www.inkscape.org/namespaces/inkscape"
   width="54.277828mm"
   height="36.289776mm"
   viewBox="0 0 54.277828 36.289776"
   version="1.1"
   id="svg8"
   sodipodi:docname="drawing2.svg"
   inkscape:version="0.92.2 5c3e80d, 2017-08-06">
  <defs
     id="defs2" />
  <sodipodi:namedview
     id="base"
     pagecolor="#ffffff"
     bordercolor="#666666"
     borderopacity="1.0"
     inkscape:pageopacity="0.0"
     inkscape:pageshadow="2"
     inkscape:zoom="2.8"
     inkscape:cx="226.18125"
     inkscape:cy="55.255188"
     inkscape:document-units="mm"
     inkscape:current-layer="flowRoot3699"
     showgrid="false"
     inkscape:window-width="1574"
     inkscape:window-height="807"
     inkscape:window-x="12"
     inkscape:window-y="40"
     inkscape:window-maximized="0"
     fit-margin-top="0"
     fit-margin-left="0"
     fit-margin-right="0"
     fit-margin-bottom="0" />
  <metadata
     id="metadata5">
    <rdf:RDF>
      <cc:Work
         rdf:about="">
        <dc:format>image/svg+xml</dc:format>
        <dc:type
           rdf:resource="http://purl.org/dc/dcmitype/StillImage" />
        <dc:title></dc:title>
      </cc:Work>
    </rdf:RDF>
  </metadata>
  <g
     inkscape:label="Layer 1"
     inkscape:groupmode="layer"
     id="layer1"
     transform="translate(0.52650919,1.0301333)">
    <g
       aria-label="ANIME
WAS A
MISTAKE"
       transform="matrix(0.26458333,0,0,0.26458333,-70.341369,-25.513393)"
       style="font-style:normal;font-variant:normal;font-weight:normal;font-stretch:normal;font-size:40px;line-height:1.25;font-family:'Super Mario 256';-inkscape-font-specification:'Super Mario 256, ';letter-spacing:0px;word-spacing:0px;fill:#000000;fill-opacity:1;stroke:none"
       id="flowRoot3699">
      <path
         sodipodi:type="inkscape:offset"
         inkscape:radius="0"
         inkscape:original="M 359.79102 92.535156 L 359.70898 92.539062 L 351.94727 93.019531 L 349.67383 94.050781 L 342.48633 92.933594 L 338.88672 94.669922 L 338.83398 94.583984 L 335.82422 92.890625 L 329.78516 92.890625 L 326.32031 95.779297 L 323.73633 109.94336 L 316.87695 94.986328 L 313.32617 92.949219 L 305.32617 93.748047 L 302.65039 95.453125 L 286.6875 122.29297 L 289.0957 127.55859 L 300.73633 129.63867 L 304.73633 127.15625 L 306.17773 122.20117 L 310.18945 122.29883 L 310.74609 126.40625 L 314.78711 129.41016 L 322.16992 128.23633 L 324.31641 129.08984 L 333.79688 129.49023 L 337.41016 126.5957 L 337.56445 125.74023 L 338.63867 127.38281 L 341.36328 128.9668 L 349.04492 129.44727 L 351.35547 128.76562 L 353.58984 129.27344 L 366.31055 127.87305 L 368.30469 126.96289 L 377.16211 128.63281 L 381 126.67188 L 385.27539 117.58984 L 387.4043 120.41211 L 392.55859 120.92188 L 395.97656 117.875 L 396.65234 119.82617 L 398.66406 127.00391 L 402.34375 129.5625 L 412.76562 128.70312 L 414.98438 129.49414 L 437.02344 129.49414 L 440.26172 124.58984 L 436.86328 116.63086 L 434.85547 114.7168 L 435.21875 108.95312 L 434.97656 107.44336 L 436.39648 105.25586 L 438.03711 96.976562 L 434.58398 92.771484 L 414.98438 92.771484 L 411.53516 95.587891 L 410.04297 102.88477 L 407.92188 95.447266 L 404.45898 92.892578 L 396.97852 93.052734 L 394.05859 94.722656 L 392.97656 96.474609 L 392.61914 95.451172 L 389.29492 93.091797 L 380.85352 93.091797 L 377.75586 94.939453 L 367.36523 114.17773 L 363.37109 95.322266 L 359.79102 92.535156 z M 373.96875 142.73047 L 371.3418 143.90625 L 360.62305 155.90625 L 359.85156 157.34766 L 354.18164 144.98633 L 350.63086 142.94922 L 342.63086 143.74805 L 339.95508 145.45312 L 332.73633 157.59375 L 336.06641 150.60742 L 333.63086 145.65039 L 323.63086 143.49219 L 319.63281 145.59375 L 316.11328 154.14648 L 314.78125 152.14258 L 309.35938 151.60156 L 306.90625 154.05664 L 306.48438 152.67578 L 304.70703 145.48633 L 300.98047 142.82422 L 291.46094 143.66406 L 288.35547 148.03125 L 295.63477 176.95117 L 299.15234 179.61133 L 305.95312 179.41211 L 308.99219 177.48047 L 309.31055 176.85156 L 309.35938 176.99609 L 312.68945 179.375 L 320.12891 179.375 L 323.30664 177.36914 L 324.00391 175.9043 L 326.40039 177.55859 L 338.04102 179.63867 L 342.04102 177.15625 L 343.48242 172.20117 L 347.49414 172.29883 L 348.05078 176.40625 L 352.0918 179.41016 L 364.17188 177.49023 L 365.90625 176.68555 L 368.58008 178.81055 L 370.76953 179.57422 L 383.60938 179.57422 L 386.7207 177.70312 L 391.96094 167.82227 L 390.93164 163.33203 L 388.85156 161.80664 L 393.50391 156.07227 L 393.33203 151.43945 L 386.17188 143.83789 L 383.60938 142.73047 L 373.96875 142.73047 z M 429.01367 142.93555 L 428.52148 142.94922 L 420.52148 143.74805 L 417.84375 145.45312 L 401.88477 172.29297 L 404.29102 177.55859 L 415.93164 179.63867 L 419.93164 177.15625 L 421.37305 172.20117 L 425.38477 172.29883 L 425.94141 176.40625 L 429.98242 179.41016 L 442.0625 177.49023 L 444.71094 172.54688 L 432.07227 144.98633 L 429.01367 142.93555 z M 361.72852 161.44336 L 362.05469 161.63672 L 361.91992 161.86133 L 361.72852 161.44336 z M 321.04102 192.53516 L 320.95898 192.53906 L 313.19727 193.01953 L 309.89453 196.6582 L 310.07031 201.61523 L 308.3125 195.44727 L 304.84961 192.89258 L 297.36914 193.05273 L 294.44922 194.72266 L 293.36719 196.47461 L 293.00977 195.45117 L 289.68555 193.0918 L 281.24414 193.0918 L 278.14648 194.93945 L 263.86719 221.37891 L 266.3125 226.51367 L 277.55273 228.63281 L 281.39062 226.67188 L 285.66602 217.58984 L 287.79492 220.41211 L 292.94922 220.92188 L 296.36719 217.875 L 297.04297 219.82617 L 299.05469 227.00391 L 302.73438 229.5625 L 312.58203 228.75 L 314.83984 229.27344 L 327.56055 227.87305 L 330.5 225.52539 L 334.63477 228.81055 L 336.82422 229.57422 L 349.66406 229.57422 L 352.77539 227.70312 L 358.01562 217.82227 L 356.98633 213.33203 L 354.90625 211.80664 L 356.20312 210.20703 L 356.78516 210.28906 L 363.19922 210.61719 L 361.4668 225.73242 L 364.96484 229.6543 L 379.28516 229.6543 L 382.46094 227.64258 L 393.62695 229.63867 L 397.62695 227.15625 L 399.06836 222.20117 L 403.08008 222.29883 L 403.63672 226.40625 L 407.67773 229.41016 L 414.56641 228.31641 L 417.35547 229.69336 L 427.63477 229.69336 L 431.04297 227.04492 L 432.36523 228.47852 L 437.53711 228.48633 L 440.15625 225.66016 L 440.23633 226.36719 L 443.73438 229.49414 L 465.77344 229.49414 L 469.01172 224.58984 L 465.61328 216.63086 L 463.60547 214.7168 L 463.96875 208.95312 L 463.72656 207.44336 L 465.14648 205.25586 L 466.78711 196.97656 L 463.33398 192.77148 L 443.73438 192.77148 L 440.28516 195.58789 L 439.43164 199.75781 L 434.91992 194.96094 L 429.70898 195.05078 L 429.56836 195.21289 L 426.27539 192.93164 L 417.91602 192.93164 L 414.39648 196.38672 L 414.23828 204.73633 L 409.76758 194.98633 L 406.2168 192.94922 L 398.2168 193.74805 L 395.54102 195.45312 L 390.04688 204.69141 L 390.04688 196.93359 L 386.58789 193.41406 L 357.02734 192.89258 L 353.62109 195.31836 L 352.22656 193.83789 L 349.66406 192.73047 L 340.02344 192.73047 L 337.39648 193.90625 L 326.82812 205.73828 L 324.62109 195.32227 L 321.04102 192.53516 z M 438.21875 208.50195 L 438.68164 212.60156 L 436.125 210.7793 L 438.21875 208.50195 z M 380.70703 211.54688 L 385.50195 212.33398 L 381.74805 218.64844 L 380.70703 211.54688 z M 328.07227 211.61523 L 328.10938 211.63672 L 328.08594 211.67578 L 328.07227 211.61523 z "
         xlink:href="#path3749"
         style="font-style:normal;font-variant:normal;font-weight:bold;font-stretch:normal;font-family:'Super Mario 256';-inkscape-font-specification:'Super Mario 256 Bold';text-align:center;text-anchor:middle"
         id="path3817"
         inkscape:href="#path3749"
         d="m 359.79102,92.535156 -0.082,0.0039 -7.76171,0.480469 -2.27344,1.03125 -7.1875,-1.117187 -3.59961,1.736328 -0.0527,-0.08594 -3.00976,-1.693359 h -6.03906 l -3.46485,2.888672 -2.58398,14.164063 -6.85938,-14.957032 -3.55078,-2.037109 -8,0.798828 -2.67578,1.705078 -15.96289,26.839845 2.4082,5.26562 11.64063,2.08008 4,-2.48242 1.4414,-4.95508 4.01172,0.0977 0.55664,4.10742 4.04102,3.00391 7.38281,-1.17383 2.14649,0.85351 9.48047,0.40039 3.61328,-2.89453 0.15429,-0.85547 1.07422,1.64258 2.72461,1.58399 7.68164,0.48047 2.31055,-0.68165 2.23437,0.50782 12.72071,-1.40039 1.99414,-0.91016 8.85742,1.66992 3.83789,-1.96093 4.27539,-9.08204 2.12891,2.82227 5.15429,0.50977 3.41797,-3.04688 0.67578,1.95117 2.01172,7.17774 3.67969,2.55859 10.42187,-0.85938 2.21876,0.79102 h 22.03906 l 3.23828,-4.9043 -3.39844,-7.95898 -2.00781,-1.91406 0.36328,-5.76368 -0.24219,-1.50976 1.41992,-2.1875 1.64063,-8.279298 -3.45313,-4.205078 h -19.5996 l -3.44922,2.816407 -1.49219,7.296879 -2.12109,-7.437504 -3.4629,-2.554688 -7.48046,0.160156 -2.91993,1.669922 -1.08203,1.751953 -0.35742,-1.023437 -3.32422,-2.359375 h -8.4414 l -3.09766,1.847656 -10.39063,19.238277 -3.99414,-18.855464 z m 14.17773,50.195314 -2.62695,1.17578 -10.71875,12 -0.77149,1.44141 -5.66992,-12.36133 -3.55078,-2.03711 -8,0.79883 -2.67578,1.70507 -7.21875,12.14063 3.33008,-6.98633 -2.43555,-4.95703 -10,-2.1582 -3.99805,2.10156 -3.51953,8.55273 -1.33203,-2.0039 -5.42187,-0.54102 -2.45313,2.45508 -0.42187,-1.38086 -1.77735,-7.18945 -3.72656,-2.66211 -9.51953,0.83984 -3.10547,4.36719 7.2793,28.91992 3.51757,2.66016 6.80078,-0.19922 3.03907,-1.93164 0.31836,-0.62891 0.0488,0.14453 3.33007,2.37891 h 7.43946 l 3.17773,-2.00586 0.69727,-1.46484 2.39648,1.65429 11.64063,2.08008 4,-2.48242 1.4414,-4.95508 4.01172,0.0977 0.55664,4.10742 4.04102,3.00391 12.08008,-1.91993 1.73437,-0.80468 2.67383,2.125 2.18945,0.76367 h 12.83985 l 3.11132,-1.8711 5.24024,-9.88085 -1.0293,-4.49024 -2.08008,-1.52539 4.65235,-5.73437 -0.17188,-4.63282 -7.16015,-7.60156 -2.5625,-1.10742 z m 55.04492,0.20508 -0.49219,0.0137 -8,0.79883 -2.67773,1.70507 -15.95898,26.83985 2.40625,5.26562 11.64062,2.08008 4,-2.48242 1.44141,-4.95508 4.01172,0.0977 0.55664,4.10742 4.04101,3.00391 12.08008,-1.91993 2.64844,-4.94335 -12.63867,-27.56055 z m -67.28515,18.50781 0.32617,0.19336 -0.13477,0.22461 z m -40.6875,31.0918 -0.082,0.004 -7.76171,0.48047 -3.30274,3.63867 0.17578,4.95703 -1.75781,-6.16796 -3.46289,-2.55469 -7.48047,0.16015 -2.91992,1.66993 -1.08203,1.75195 -0.35742,-1.02344 -3.32422,-2.35937 h -8.44141 l -3.09766,1.84765 -14.27929,26.43946 2.44531,5.13476 11.24023,2.11914 3.83789,-1.96093 4.2754,-9.08204 2.1289,2.82227 5.1543,0.50977 3.41797,-3.04688 0.67578,1.95117 2.01172,7.17774 3.67969,2.55859 9.84765,-0.8125 2.25781,0.52344 12.72071,-1.40039 2.93945,-2.34766 4.13477,3.28516 2.18945,0.76367 h 12.83984 l 3.11133,-1.8711 5.24023,-9.88085 -1.02929,-4.49024 -2.08008,-1.52539 1.29687,-1.59961 0.58204,0.082 6.41406,0.32813 -1.73242,15.11523 3.49804,3.92188 h 14.32032 l 3.17578,-2.01172 11.16601,1.99609 4,-2.48242 1.44141,-4.95508 4.01172,0.0977 0.55664,4.10742 4.04101,3.00391 6.88868,-1.09375 2.78906,1.37695 h 10.2793 l 3.4082,-2.64844 1.32226,1.4336 5.17188,0.008 2.61914,-2.82617 0.0801,0.70703 3.49805,3.12695 h 22.03906 l 3.23828,-4.9043 -3.39844,-7.95898 -2.00781,-1.91406 0.36328,-5.76368 -0.24219,-1.50976 1.41992,-2.1875 1.64063,-8.2793 -3.45313,-4.20508 h -19.5996 l -3.44922,2.81641 -0.85352,4.16992 -4.51172,-4.79687 -5.21094,0.0898 -0.14062,0.16211 -3.29297,-2.28125 h -8.35937 l -3.51954,3.45508 -0.1582,8.34961 -4.4707,-9.75 -3.55078,-2.03711 -8,0.79883 -2.67578,1.70507 -5.49414,9.23829 v -7.75782 l -3.45899,-3.51953 -29.56055,-0.52148 -3.40625,2.42578 -1.39453,-1.48047 -2.5625,-1.10742 h -9.64062 l -2.62696,1.17578 -10.56836,11.83203 -2.20703,-10.41601 z m 117.17773,15.96679 0.46289,4.09961 -2.55664,-1.82226 z m -57.51172,3.04493 4.79492,0.7871 -3.7539,6.31446 z m -52.63476,0.0684 0.0371,0.0215 -0.0234,0.0391 z" />
      <path
         sodipodi:type="inkscape:offset"
         inkscape:radius="0"
         inkscape:original="M 359.79102 92.535156 L 359.70898 92.539062 L 351.94727 93.019531 L 349.67383 94.050781 L 342.48633 92.933594 L 338.88672 94.669922 L 338.83398 94.583984 L 335.82422 92.890625 L 329.78516 92.890625 L 326.32031 95.779297 L 323.73633 109.94336 L 316.87695 94.986328 L 313.32617 92.949219 L 305.32617 93.748047 L 302.65039 95.453125 L 286.6875 122.29297 L 289.0957 127.55859 L 300.73633 129.63867 L 304.73633 127.15625 L 306.17773 122.20117 L 310.18945 122.29883 L 310.74609 126.40625 L 314.78711 129.41016 L 322.16992 128.23633 L 324.31641 129.08984 L 333.79688 129.49023 L 337.41016 126.5957 L 337.56445 125.74023 L 338.63867 127.38281 L 341.36328 128.9668 L 349.04492 129.44727 L 351.35547 128.76562 L 353.58984 129.27344 L 366.31055 127.87305 L 368.30469 126.96289 L 377.16211 128.63281 L 381 126.67188 L 385.27539 117.58984 L 387.4043 120.41211 L 392.55859 120.92188 L 395.97656 117.875 L 396.65234 119.82617 L 398.66406 127.00391 L 402.34375 129.5625 L 412.76562 128.70312 L 414.98438 129.49414 L 437.02344 129.49414 L 440.26172 124.58984 L 436.86328 116.63086 L 434.85547 114.7168 L 435.21875 108.95312 L 434.97656 107.44336 L 436.39648 105.25586 L 438.03711 96.976562 L 434.58398 92.771484 L 414.98438 92.771484 L 411.53516 95.587891 L 410.04297 102.88477 L 407.92188 95.447266 L 404.45898 92.892578 L 396.97852 93.052734 L 394.05859 94.722656 L 392.97656 96.474609 L 392.61914 95.451172 L 389.29492 93.091797 L 380.85352 93.091797 L 377.75586 94.939453 L 367.36523 114.17773 L 363.37109 95.322266 L 359.79102 92.535156 z M 373.96875 142.73047 L 371.3418 143.90625 L 360.62305 155.90625 L 359.85156 157.34766 L 354.18164 144.98633 L 350.63086 142.94922 L 342.63086 143.74805 L 339.95508 145.45312 L 332.73633 157.59375 L 336.06641 150.60742 L 333.63086 145.65039 L 323.63086 143.49219 L 319.63281 145.59375 L 316.11328 154.14648 L 314.78125 152.14258 L 309.35938 151.60156 L 306.90625 154.05664 L 306.48438 152.67578 L 304.70703 145.48633 L 300.98047 142.82422 L 291.46094 143.66406 L 288.35547 148.03125 L 295.63477 176.95117 L 299.15234 179.61133 L 305.95312 179.41211 L 308.99219 177.48047 L 309.31055 176.85156 L 309.35938 176.99609 L 312.68945 179.375 L 320.12891 179.375 L 323.30664 177.36914 L 324.00391 175.9043 L 326.40039 177.55859 L 338.04102 179.63867 L 342.04102 177.15625 L 343.48242 172.20117 L 347.49414 172.29883 L 348.05078 176.40625 L 352.0918 179.41016 L 364.17188 177.49023 L 365.90625 176.68555 L 368.58008 178.81055 L 370.76953 179.57422 L 383.60938 179.57422 L 386.7207 177.70312 L 391.96094 167.82227 L 390.93164 163.33203 L 388.85156 161.80664 L 393.50391 156.07227 L 393.33203 151.43945 L 386.17188 143.83789 L 383.60938 142.73047 L 373.96875 142.73047 z M 429.01367 142.93555 L 428.52148 142.94922 L 420.52148 143.74805 L 417.84375 145.45312 L 401.88477 172.29297 L 404.29102 177.55859 L 415.93164 179.63867 L 419.93164 177.15625 L 421.37305 172.20117 L 425.38477 172.29883 L 425.94141 176.40625 L 429.98242 179.41016 L 442.0625 177.49023 L 444.71094 172.54688 L 432.07227 144.98633 L 429.01367 142.93555 z M 361.72852 161.44336 L 362.05469 161.63672 L 361.91992 161.86133 L 361.72852 161.44336 z M 321.04102 192.53516 L 320.95898 192.53906 L 313.19727 193.01953 L 309.89453 196.6582 L 310.07031 201.61523 L 308.3125 195.44727 L 304.84961 192.89258 L 297.36914 193.05273 L 294.44922 194.72266 L 293.36719 196.47461 L 293.00977 195.45117 L 289.68555 193.0918 L 281.24414 193.0918 L 278.14648 194.93945 L 263.86719 221.37891 L 266.3125 226.51367 L 277.55273 228.63281 L 281.39062 226.67188 L 285.66602 217.58984 L 287.79492 220.41211 L 292.94922 220.92188 L 296.36719 217.875 L 297.04297 219.82617 L 299.05469 227.00391 L 302.73438 229.5625 L 312.58203 228.75 L 314.83984 229.27344 L 327.56055 227.87305 L 330.5 225.52539 L 334.63477 228.81055 L 336.82422 229.57422 L 349.66406 229.57422 L 352.77539 227.70312 L 358.01562 217.82227 L 356.98633 213.33203 L 354.90625 211.80664 L 356.20312 210.20703 L 356.78516 210.28906 L 363.19922 210.61719 L 361.4668 225.73242 L 364.96484 229.6543 L 379.28516 229.6543 L 382.46094 227.64258 L 393.62695 229.63867 L 397.62695 227.15625 L 399.06836 222.20117 L 403.08008 222.29883 L 403.63672 226.40625 L 407.67773 229.41016 L 414.56641 228.31641 L 417.35547 229.69336 L 427.63477 229.69336 L 431.04297 227.04492 L 432.36523 228.47852 L 437.53711 228.48633 L 440.15625 225.66016 L 440.23633 226.36719 L 443.73438 229.49414 L 465.77344 229.49414 L 469.01172 224.58984 L 465.61328 216.63086 L 463.60547 214.7168 L 463.96875 208.95312 L 463.72656 207.44336 L 465.14648 205.25586 L 466.78711 196.97656 L 463.33398 192.77148 L 443.73438 192.77148 L 440.28516 195.58789 L 439.43164 199.75781 L 434.91992 194.96094 L 429.70898 195.05078 L 429.56836 195.21289 L 426.27539 192.93164 L 417.91602 192.93164 L 414.39648 196.38672 L 414.23828 204.73633 L 409.76758 194.98633 L 406.2168 192.94922 L 398.2168 193.74805 L 395.54102 195.45312 L 390.04688 204.69141 L 390.04688 196.93359 L 386.58789 193.41406 L 357.02734 192.89258 L 353.62109 195.31836 L 352.22656 193.83789 L 349.66406 192.73047 L 340.02344 192.73047 L 337.39648 193.90625 L 326.82812 205.73828 L 324.62109 195.32227 L 321.04102 192.53516 z M 438.21875 208.50195 L 438.68164 212.60156 L 436.125 210.7793 L 438.21875 208.50195 z M 380.70703 211.54688 L 385.50195 212.33398 L 381.74805 218.64844 L 380.70703 211.54688 z M 328.07227 211.61523 L 328.10938 211.63672 L 328.08594 211.67578 L 328.07227 211.61523 z "
         xlink:href="#path3749"
         style="font-style:normal;font-variant:normal;font-weight:bold;font-stretch:normal;font-family:'Super Mario 256';-inkscape-font-specification:'Super Mario 256 Bold';text-align:center;text-anchor:middle"
         id="path3819"
         inkscape:href="#path3749"
         d="m 359.79102,92.535156 -0.082,0.0039 -7.76171,0.480469 -2.27344,1.03125 -7.1875,-1.117187 -3.59961,1.736328 -0.0527,-0.08594 -3.00976,-1.693359 h -6.03906 l -3.46485,2.888672 -2.58398,14.164063 -6.85938,-14.957032 -3.55078,-2.037109 -8,0.798828 -2.67578,1.705078 -15.96289,26.839845 2.4082,5.26562 11.64063,2.08008 4,-2.48242 1.4414,-4.95508 4.01172,0.0977 0.55664,4.10742 4.04102,3.00391 7.38281,-1.17383 2.14649,0.85351 9.48047,0.40039 3.61328,-2.89453 0.15429,-0.85547 1.07422,1.64258 2.72461,1.58399 7.68164,0.48047 2.31055,-0.68165 2.23437,0.50782 12.72071,-1.40039 1.99414,-0.91016 8.85742,1.66992 3.83789,-1.96093 4.27539,-9.08204 2.12891,2.82227 5.15429,0.50977 3.41797,-3.04688 0.67578,1.95117 2.01172,7.17774 3.67969,2.55859 10.42187,-0.85938 2.21876,0.79102 h 22.03906 l 3.23828,-4.9043 -3.39844,-7.95898 -2.00781,-1.91406 0.36328,-5.76368 -0.24219,-1.50976 1.41992,-2.1875 1.64063,-8.279298 -3.45313,-4.205078 h -19.5996 l -3.44922,2.816407 -1.49219,7.296879 -2.12109,-7.437504 -3.4629,-2.554688 -7.48046,0.160156 -2.91993,1.669922 -1.08203,1.751953 -0.35742,-1.023437 -3.32422,-2.359375 h -8.4414 l -3.09766,1.847656 -10.39063,19.238277 -3.99414,-18.855464 z m 14.17773,50.195314 -2.62695,1.17578 -10.71875,12 -0.77149,1.44141 -5.66992,-12.36133 -3.55078,-2.03711 -8,0.79883 -2.67578,1.70507 -7.21875,12.14063 3.33008,-6.98633 -2.43555,-4.95703 -10,-2.1582 -3.99805,2.10156 -3.51953,8.55273 -1.33203,-2.0039 -5.42187,-0.54102 -2.45313,2.45508 -0.42187,-1.38086 -1.77735,-7.18945 -3.72656,-2.66211 -9.51953,0.83984 -3.10547,4.36719 7.2793,28.91992 3.51757,2.66016 6.80078,-0.19922 3.03907,-1.93164 0.31836,-0.62891 0.0488,0.14453 3.33007,2.37891 h 7.43946 l 3.17773,-2.00586 0.69727,-1.46484 2.39648,1.65429 11.64063,2.08008 4,-2.48242 1.4414,-4.95508 4.01172,0.0977 0.55664,4.10742 4.04102,3.00391 12.08008,-1.91993 1.73437,-0.80468 2.67383,2.125 2.18945,0.76367 h 12.83985 l 3.11132,-1.8711 5.24024,-9.88085 -1.0293,-4.49024 -2.08008,-1.52539 4.65235,-5.73437 -0.17188,-4.63282 -7.16015,-7.60156 -2.5625,-1.10742 z m 55.04492,0.20508 -0.49219,0.0137 -8,0.79883 -2.67773,1.70507 -15.95898,26.83985 2.40625,5.26562 11.64062,2.08008 4,-2.48242 1.44141,-4.95508 4.01172,0.0977 0.55664,4.10742 4.04101,3.00391 12.08008,-1.91993 2.64844,-4.94335 -12.63867,-27.56055 z m -67.28515,18.50781 0.32617,0.19336 -0.13477,0.22461 z m -40.6875,31.0918 -0.082,0.004 -7.76171,0.48047 -3.30274,3.63867 0.17578,4.95703 -1.75781,-6.16796 -3.46289,-2.55469 -7.48047,0.16015 -2.91992,1.66993 -1.08203,1.75195 -0.35742,-1.02344 -3.32422,-2.35937 h -8.44141 l -3.09766,1.84765 -14.27929,26.43946 2.44531,5.13476 11.24023,2.11914 3.83789,-1.96093 4.2754,-9.08204 2.1289,2.82227 5.1543,0.50977 3.41797,-3.04688 0.67578,1.95117 2.01172,7.17774 3.67969,2.55859 9.84765,-0.8125 2.25781,0.52344 12.72071,-1.40039 2.93945,-2.34766 4.13477,3.28516 2.18945,0.76367 h 12.83984 l 3.11133,-1.8711 5.24023,-9.88085 -1.02929,-4.49024 -2.08008,-1.52539 1.29687,-1.59961 0.58204,0.082 6.41406,0.32813 -1.73242,15.11523 3.49804,3.92188 h 14.32032 l 3.17578,-2.01172 11.16601,1.99609 4,-2.48242 1.44141,-4.95508 4.01172,0.0977 0.55664,4.10742 4.04101,3.00391 6.88868,-1.09375 2.78906,1.37695 h 10.2793 l 3.4082,-2.64844 1.32226,1.4336 5.17188,0.008 2.61914,-2.82617 0.0801,0.70703 3.49805,3.12695 h 22.03906 l 3.23828,-4.9043 -3.39844,-7.95898 -2.00781,-1.91406 0.36328,-5.76368 -0.24219,-1.50976 1.41992,-2.1875 1.64063,-8.2793 -3.45313,-4.20508 h -19.5996 l -3.44922,2.81641 -0.85352,4.16992 -4.51172,-4.79687 -5.21094,0.0898 -0.14062,0.16211 -3.29297,-2.28125 h -8.35937 l -3.51954,3.45508 -0.1582,8.34961 -4.4707,-9.75 -3.55078,-2.03711 -8,0.79883 -2.67578,1.70507 -5.49414,9.23829 v -7.75782 l -3.45899,-3.51953 -29.56055,-0.52148 -3.40625,2.42578 -1.39453,-1.48047 -2.5625,-1.10742 h -9.64062 l -2.62696,1.17578 -10.56836,11.83203 -2.20703,-10.41601 z m 117.17773,15.96679 0.46289,4.09961 -2.55664,-1.82226 z m -57.51172,3.04493 4.79492,0.7871 -3.7539,6.31446 z m -52.63476,0.0684 0.0371,0.0215 -0.0234,0.0391 z" />
      <path
         style="font-style:normal;font-variant:normal;font-weight:bold;font-stretch:normal;font-family:'Super Mario 256';-inkscape-font-specification:'Super Mario 256 Bold';text-align:center;text-anchor:middle"
         d="m 359.79102,92.535156 -0.082,0.0039 -7.76171,0.480469 -2.27344,1.03125 -7.1875,-1.117187 -3.59961,1.736328 -0.0527,-0.08594 -3.00976,-1.693359 h -6.03906 l -3.46485,2.888672 -2.58398,14.164061 -6.85938,-14.95703 -3.55078,-2.037109 -8,0.798828 -2.67578,1.705078 -15.96297,26.839853 2.4082,5.26562 11.64063,2.08008 4,-2.48242 1.4414,-4.95508 4.01172,0.0977 0.55664,4.10742 4.04102,3.00391 7.38281,-1.17383 2.14649,0.85351 9.48047,0.40039 3.61328,-2.89453 0.15429,-0.85547 1.07422,1.64258 2.72461,1.58399 7.68164,0.48047 2.31055,-0.68165 2.23437,0.50782 12.72071,-1.40039 1.99414,-0.91016 8.85742,1.66992 3.83789,-1.96097 4.27539,-9.08204 2.12891,2.82227 5.15429,0.50977 3.41797,-3.04688 0.67578,1.95117 2.01172,7.17774 3.67969,2.55859 10.42187,-0.85938 2.21876,0.79102 h 22.03906 l 3.23828,-4.9043 -3.39844,-7.95898 -2.00781,-1.91406 0.36328,-5.76368 -0.24219,-1.50976 1.41992,-2.1875 1.64063,-8.279298 -3.45313,-4.205078 h -19.5996 l -3.44922,2.816407 -1.49219,7.296879 -2.12109,-7.437504 -3.4629,-2.554688 -7.48046,0.160156 -2.91993,1.669922 -1.08203,1.751953 -0.35742,-1.023437 -3.32422,-2.359375 h -8.4414 l -3.09766,1.847656 -10.39063,19.238277 -3.99414,-18.855464 z m 14.17773,50.195314 -2.62695,1.17578 -10.71875,12 -0.77149,1.44141 -5.66992,-12.36133 -3.55078,-2.03711 -8,0.79883 -2.67578,1.70507 -7.21875,12.14063 3.33008,-6.98633 -2.43555,-4.95703 -10,-2.1582 -3.99805,2.10156 -3.51953,8.55273 -1.33203,-2.0039 -5.42187,-0.54102 -2.45313,2.45508 -0.42187,-1.38086 -1.77735,-7.18945 -3.72656,-2.66211 -9.51953,0.83984 -3.10547,4.36719 7.2793,28.91992 3.51757,2.66016 6.80078,-0.19922 3.03907,-1.93164 0.31836,-0.62891 0.0488,0.14453 3.33007,2.37891 h 7.43946 l 3.17773,-2.00586 0.69727,-1.46484 2.39648,1.65429 11.64063,2.08008 4,-2.48242 1.4414,-4.95508 4.01172,0.0977 0.55664,4.10742 4.04102,3.00391 12.08008,-1.91993 1.73437,-0.80468 2.67383,2.125 2.18945,0.76367 h 12.83985 l 3.11132,-1.8711 5.24024,-9.88085 -1.0293,-4.49024 -2.08008,-1.52539 4.65235,-5.73437 -0.17188,-4.63282 -7.16015,-7.60156 -2.5625,-1.10742 z m 55.04492,0.20508 -0.49219,0.0137 -8,0.79883 -2.67773,1.70507 -15.95898,26.83985 2.40625,5.26562 11.64062,2.08008 4,-2.48242 1.44141,-4.95508 4.01172,0.0977 0.55664,4.10742 4.04101,3.00391 12.08008,-1.91993 2.64844,-4.94335 -12.63867,-27.56055 -3.0586,-2.05078 z m -67.28515,18.50781 0.32617,0.19336 -0.13477,0.22461 z m -40.6875,31.0918 -0.082,0.004 -7.76171,0.48047 -3.30274,3.63867 0.17578,4.95703 -1.75781,-6.16796 -3.46289,-2.55469 -7.48047,0.16015 -2.91992,1.66993 -1.08203,1.75195 -0.35742,-1.02344 -3.32422,-2.35937 h -8.44141 l -3.09766,1.84765 -14.27929,26.43946 2.44531,5.13476 11.24023,2.11914 3.83789,-1.96093 4.2754,-9.08204 2.1289,2.82227 5.1543,0.50977 3.41797,-3.04688 0.67578,1.95117 2.01172,7.17774 3.67969,2.55859 9.84765,-0.8125 2.25781,0.52344 12.72071,-1.40039 2.93941,-2.34776 4.13477,3.28516 2.18945,0.76367 h 12.83984 l 3.11133,-1.8711 5.24023,-9.88085 -1.02929,-4.49024 -2.08008,-1.52539 1.29687,-1.59961 0.58204,0.082 6.41406,0.32813 -1.73242,15.11523 3.49804,3.92188 h 14.32032 l 3.17578,-2.01172 11.16601,1.99609 4,-2.48242 1.44141,-4.95508 4.01172,0.0977 0.55664,4.10742 4.04101,3.00391 6.88868,-1.09375 2.78906,1.37695 h 10.2793 l 3.4082,-2.64844 1.32226,1.4336 5.17188,0.008 2.61914,-2.82617 0.0801,0.70703 3.49805,3.12695 h 22.03906 l 3.23828,-4.9043 -3.39844,-7.95898 -2.00781,-1.91406 0.36328,-5.76368 -0.24219,-1.50976 1.41992,-2.1875 1.64063,-8.2793 -3.45313,-4.20508 h -19.5996 l -3.44922,2.81641 -0.85352,4.16992 -4.51172,-4.79687 -5.21094,0.0898 -0.14062,0.16211 -3.29297,-2.28125 h -8.35937 l -3.51954,3.45508 -0.1582,8.34961 -4.4707,-9.75 -3.55078,-2.03711 -8,0.79883 -2.67578,1.70507 -5.49414,9.23829 v -7.75782 l -3.45899,-3.51953 -29.56055,-0.52148 -3.40625,2.42578 -1.39453,-1.48047 -2.5625,-1.10742 h -9.64062 l -2.62696,1.17578 -10.56836,11.83203 -2.20703,-10.41601 -3.58007,-2.78711 z m 117.17773,15.96679 0.46289,4.09961 -2.55664,-1.82226 z m -57.51172,3.04493 4.79492,0.7871 -3.7539,6.31446 z m -52.63476,0.0684 0.0371,0.0215 -0.0234,0.0391 z"
         id="path3749"
         inkscape:connector-curvature="0"
         sodipodi:nodetypes="cccccccccccccccccccccccccccccccccccccccccccccccccccccccccccccccccccccccccccccccccccccccccccccccccccccccccccccccccccccccccccccccccccccccccccccccccccccccccccccccccccccccccccccccccccccccccccccccccccccccccccccccccccccccccccccccccccccccccccccccccccccccccc" />
    </g>
  </g>
</svg>
