<?xml version="1.0" encoding="UTF-8" standalone="no"?>
<!-- Created with Inkscape (http://www.inkscape.org/) -->

<svg
   xmlns:dc="http://purl.org/dc/elements/1.1/"
   xmlns:cc="http://creativecommons.org/ns#"
   xmlns:rdf="http://www.w3.org/1999/02/22-rdf-syntax-ns#"
   xmlns:svg="http://www.w3.org/2000/svg"
   xmlns="http://www.w3.org/2000/svg"
   xmlns:sodipodi="http://sodipodi.sourceforge.net/DTD/sodipodi-0.dtd"
   xmlns:inkscape="http://www.inkscape.org/namespaces/inkscape"
   width="158.75665mm"
   height="146.85014mm"
   viewBox="0 0 158.75665 146.85014"
   version="1.1"
   id="svg8"
   inkscape:version="0.92.2 (5c3e80d, 2017-08-06)"
   sodipodi:docname="text2.svg">
  <defs
     id="defs2" />
  <sodipodi:namedview
     id="base"
     pagecolor="#ffffff"
     bordercolor="#666666"
     borderopacity="1.0"
     inkscape:pageopacity="0.0"
     inkscape:pageshadow="2"
     inkscape:zoom="1.2797552"
     inkscape:cx="-222.4796"
     inkscape:cy="230.04265"
     inkscape:document-units="mm"
     inkscape:current-layer="layer1"
     showgrid="false"
     fit-margin-top="0"
     fit-margin-left="0"
     fit-margin-right="0"
     fit-margin-bottom="0"
     inkscape:window-width="2497"
     inkscape:window-height="1057"
     inkscape:window-x="55"
     inkscape:window-y="-8"
     inkscape:window-maximized="1" />
  <metadata
     id="metadata5">
    <rdf:RDF>
      <cc:Work
         rdf:about="">
        <dc:format>image/svg+xml</dc:format>
        <dc:type
           rdf:resource="http://purl.org/dc/dcmitype/StillImage" />
        <dc:title></dc:title>
      </cc:Work>
    </rdf:RDF>
  </metadata>
  <g
     inkscape:label="Layer 1"
     inkscape:groupmode="layer"
     id="layer1"
     style="display:inline"
     transform="translate(-35.114409,-33.867781)">
    <path
       style="fill:#000000;stroke-width:0.14936621"
       d="m 59.701097,170.36341 c -1.231891,-0.21127 -2.104193,-0.93824 -2.3296,-1.94145 -0.165299,-0.73569 -0.07724,-1.15923 0.467838,-2.25031 5.443659,-6.67925 31.969059,-15.887 45.012785,-19.23959 18.30844,-4.21944 33.10484,-6.54907 48.82067,-9.69331 4.25119,-0.67531 6.7157,-1.34161 4.96234,-1.34161 -16.13193,-2.17633 -25.90511,-3.36308 -40.34004,-5.98701 -7.45922,-1.3586 -22.88297,-3.10764 -30.24667,-3.42994 -9.83023,-0.43026 -18.36003,0.0103 -27.632746,1.42735 -10.182645,1.99795 -5.539171,1.08585 -15.013746,3.18216 -1.040679,0.32786 -1.50841,0.26693 -2.160538,-0.28146 -0.910376,-0.76555 -0.865328,-2.06296 0.09983,-2.87509 l 9.083363,-2.57128 c 0.328605,-0.0583 2.07619,-0.57584 3.883521,-1.15016 1.807331,-0.57433 4.697568,-1.43828 6.422747,-1.9199 1.72518,-0.48162 4.292619,-1.24738 5.705429,-1.7017 2.91682,-0.93795 10.59908,-3.06528 14.60838,-4.04526 10.2503,-2.50544 14.09916,-3.42181 16.65433,-3.96523 1.60195,-0.34069 4.40528,-0.98104 6.22962,-1.42301 2.91339,-0.70579 8.63732,-1.93809 15.57785,-3.35374 8.51962,-1.73773 21.31983,-3.88832 27.55807,-4.6301 5.21708,-0.62035 7.89867,-0.89685 10.82905,-1.11662 2.95385,-0.22152 8.62739,-0.73069 13.44296,-1.20643 10.03802,-0.991677 16.66051,-3.409017 18.28832,-6.675577 0.81798,-1.64146 0.27422,-3.76308 -1.78947,-6.98221 -1.31055,-2.04431 -4.02688,-4.51457 -6.12568,-5.57076 -4.02871,-2.02738 -6.61028,-2.62214 -11.94152,-2.75119 -2.59231,-0.0628 -3.68023,-0.0265 -5.15313,0.17163 -2.02256,0.27208 -4.45536,0.7337 -5.52655,1.04865 -0.36968,0.10869 -1.20987,0.35384 -1.86708,0.54478 -1.97608,0.57411 -5.51511,2.20043 -6.53194,3.00168 -1.08174,0.85239 -1.1888,1.12495 -1.23871,3.15369 -0.0477,1.93935 -0.29751,3.24287 -0.80638,4.20805 -0.42143,0.79934 -1.55958,2.09973 -2.23004,2.54794 -0.29962,0.20029 -0.93129,0.62519 -1.40371,0.94422 -0.47252,0.3191 -1.51406,0.79748 -2.31517,1.06336 -1.27569,0.42339 -1.60462,0.47557 -2.65302,0.42089 -1.4296,-0.0746 -2.50898,-0.579 -3.28325,-1.53437 -0.54972,-0.67828 -1.1212,-1.74331 -1.1212,-2.08949 0,-0.1265 -0.0672,-0.23 -0.14936,-0.23 -0.0822,0 -0.14937,0.0569 -0.14937,0.12651 0,0.0696 -0.1372,0.28471 -0.30489,0.47806 -0.16769,0.19335 -0.6651,0.89258 -1.10535,1.55385 -0.84302,1.26626 -2.38782,2.86305 -3.15224,3.25835 -0.24946,0.129 -0.85612,0.31769 -1.34813,0.41932 -0.81506,0.16834 -0.98307,0.15532 -1.89021,-0.14656 -2.54509,-0.84695 -2.65902,-1.67439 -1.39609,-10.13944 0.21995,-1.47425 0.86255,-5.23393 1.07409,-6.28419 0.0956,-0.47482 0.084,-0.4933 -0.21128,-0.33527 -0.17188,0.092 -0.35442,0.23506 -0.40564,0.31794 -0.20753,0.33579 -1.28777,0.74394 -1.97134,0.74483 l -0.71544,9e-4 -0.0361,1.64451 c -0.032,1.45724 -0.10407,1.85356 -0.63325,3.48013 -0.55521,1.7066 -1.84568,4.39195 -2.55068,5.30774 -0.16716,0.21714 -0.67629,0.77544 -1.1314,1.24067 -1.27266,1.30094 -2.81738,1.6611 -4.3368,1.01114 -1.21496,-0.51971 -1.84713,-1.28888 -2.76989,-3.37011 -0.65076,-1.46778 -0.91444,-2.97085 -0.84321,-4.8067 0.0293,-0.75499 0.0482,-1.37268 0.0419,-1.37264 -0.006,4e-5 -0.37591,0.47748 -0.82151,1.06097 -0.44561,0.58349 -1.21348,1.57646 -1.70639,2.2066 -0.49291,0.63014 -1.1982,1.54122 -1.56732,2.02463 -1.31865,1.72698 -3.37247,3.74349 -4.33555,4.25681 -2.35638,1.25593 -4.47544,0.42086 -5.09022,-2.00594 l -0.15136,-0.59747 -1.29862,-0.006 c -1.20715,-0.005 -1.35407,-0.0404 -2.08564,-0.5 -1.13941,-0.71579 -1.55642,-1.40137 -2.36576,-3.8894 -0.0491,-0.15105 -0.18676,-0.0705 -0.47466,0.27765 -1.89715,2.29454 -3.04314,3.17193 -4.73707,3.62676 -2.13131,0.57227 -4.03819,-0.25436 -4.89812,-2.12333 -0.24707,-0.53699 -0.30621,-0.94997 -0.2941,-2.05378 0.008,-0.7599 -0.007,-1.38164 -0.0349,-1.38164 -0.0275,0 -0.3265,0.35288 -0.66443,0.78417 -0.87991,1.12303 -3.50826,3.47331 -4.3212,3.86404 -1.46444,0.70386 -4.09711,0.26719 -5.27848,-0.87551 -0.92586,-0.89555 -1.24556,-2.49497 -0.86459,-4.32547 0.0821,-0.39426 0.21471,-1.55703 0.2948,-2.58392 0.42978,-5.51056 0.73637,-8.05671 1.42985,-11.874613 0.51619,-2.841844 1.65955,-8.15954 2.0017,-9.309789 0.16302,-0.548064 0.47033,-1.803057 0.6829,-2.788874 0.21257,-0.985817 0.57992,-2.565364 0.81632,-3.510105 0.73341,-2.930931 1.19152,-5.316991 1.28279,-6.681387 l 0.0876,-1.309705 -0.30464,0.373415 c -1.03152,1.264373 -6.91063,13.497498 -8.97297,18.670776 -2.33669,5.861457 -4.38581,12.750022 -5.487292,18.446722 -0.378586,1.958 -0.49806,2.33268 -0.858854,2.69348 -1.097679,1.09768 -3.168478,0.47138 -3.452816,-1.04427 -0.05794,-0.30886 0.0073,-1.91532 0.145021,-3.56992 0.612531,-7.36 0.718723,-8.51797 0.983612,-10.725746 0.276499,-2.304556 0.918567,-5.46853 1.525628,-7.517978 0.170337,-0.57506 0.402639,-1.442695 0.516226,-1.92808 0.230534,-0.98513 1.321757,-4.379744 2.069035,-6.436427 0.67187,-1.849145 1.82363,-5.924076 2.25286,-7.970654 0.40828,-1.946676 0.51067,-4.262436 0.23082,-5.220575 -0.10352,-0.354457 -0.24666,-0.623316 -0.31806,-0.597464 -0.0714,0.02585 -0.72299,0.694869 -1.44797,1.486706 -3.011327,3.289079 -6.291587,9.122717 -9.548889,16.981823 -0.28367,0.684429 -0.775296,1.793473 -1.092503,2.464542 -0.964328,2.040096 -2.077903,4.790858 -3.305654,8.165658 -0.642563,1.766255 -1.434098,3.849915 -1.758968,4.630355 -0.324869,0.78044 -0.735929,1.92309 -0.913467,2.53922 -0.17754,0.61614 -0.619605,1.92683 -0.982371,2.91264 -0.362766,0.98582 -0.731104,2.12847 -0.818531,2.53923 -0.08743,0.41076 -0.321732,1.25094 -0.520678,1.86708 -0.198946,0.61613 -0.640364,2.19568 -0.980928,3.5101 -0.340564,1.31443 -0.687964,2.64194 -0.771999,2.95004 -0.416681,1.52767 -2.214593,2.04994 -3.360807,0.97625 -0.7431,-0.69607 -0.734954,-1.53585 0.04701,-4.84665 0.119557,-0.50621 0.385413,-2.04345 0.590787,-3.4161 0.205376,-1.37266 0.500507,-3.07576 0.655849,-3.78467 0.155341,-0.70892 0.593937,-3.50703 0.974656,-6.21802 1.560143,-11.109343 2.719844,-18.653534 3.289778,-21.400957 0.124037,-0.597932 0.225522,-1.159987 0.225522,-1.249009 0,-0.16637 -0.728316,0.830361 -2.148351,2.940109 -1.119851,1.663762 -2.253113,3.027156 -3.948058,4.749786 -1.650377,1.677373 -1.982789,1.890564 -2.947766,1.890564 -0.590671,0 -0.770427,-0.07593 -1.202347,-0.507845 -0.362566,-0.362566 -0.507846,-0.642429 -0.507846,-0.978298 0,-0.524289 0.372507,-1.351815 0.608512,-1.351815 0.45185,0 3.415898,-3.486942 4.843355,-5.697782 0.246455,-0.381706 0.748964,-1.121069 1.116689,-1.643028 0.869123,-1.233656 3.291733,-5.279735 4.413878,-7.371761 0.484719,-0.903666 1.033965,-1.911888 1.220549,-2.240493 0.186582,-0.328606 0.879428,-1.706509 1.539656,-3.062007 2.311501,-4.745687 2.43967,-4.975746 2.971892,-5.334409 0.339433,-0.228744 0.726338,-0.341507 1.171757,-0.341507 0.554815,0 0.747681,0.08269 1.164038,0.499041 0.705528,0.705528 0.785184,1.1775 0.381753,2.261952 -1.085249,2.917232 -2.974017,9.067743 -3.589754,11.689536 -0.801728,3.413732 -1.773155,8.002482 -1.952703,9.224014 -0.0966,0.657212 -0.332139,1.967918 -0.523418,2.912682 -0.19128,0.944763 -0.488317,2.79317 -0.660084,4.10757 -0.171765,1.3144 -0.352185,2.591463 -0.400932,2.837918 -0.179915,0.909611 0.22663,0.107204 1.437869,-2.837958 0.675718,-1.643028 1.564904,-3.760294 1.975971,-4.705036 0.411064,-0.944741 1.032526,-2.389859 1.381025,-3.211373 1.477896,-3.483841 4.255183,-8.844204 5.649391,-10.903733 0.333679,-0.492908 0.943884,-1.400308 1.356016,-2.016444 0.412131,-0.616135 1.458389,-1.833294 2.325018,-2.704797 2.459933,-2.473764 4.116643,-3.097971 5.947003,-2.240677 0.52841,0.247493 0.86363,0.546862 1.21729,1.087073 1.01988,1.557895 1.37574,2.946662 1.37027,5.347629 -0.003,1.527538 -0.59512,5.142021 -1.11316,6.800597 -0.20527,0.657211 -0.58627,1.934292 -0.84666,2.837958 -0.2604,0.903665 -0.7369,2.34471 -1.0589,3.20232 -0.322,0.857611 -0.56287,1.627022 -0.53528,1.709801 0.0276,0.08278 0.36491,-0.599758 0.7496,-1.51675 0.38469,-0.916992 0.96449,-2.190513 1.28845,-2.830047 0.32397,-0.639534 0.99997,-2.064866 1.50222,-3.167402 0.50226,-1.102537 1.17013,-2.446833 1.48415,-2.987324 0.31402,-0.540492 0.78597,-1.411164 1.04878,-1.934828 0.98198,-1.956658 2.97363,-4.565305 3.86618,-5.063899 0.30074,-0.167997 0.86103,-0.351918 1.24509,-0.408712 1.38934,-0.205454 2.44668,0.468128 3.16346,2.015296 0.43976,0.949239 0.45111,1.030986 0.44609,3.214502 -0.007,2.916472 -0.37957,4.924451 -2.45463,13.218909 -1.24615,4.981107 -2.51041,11.206758 -3.06356,15.085984 -0.39102,2.74227 -0.50962,3.97821 -0.79546,8.28983 -0.0817,1.23227 -0.18777,2.45894 -0.23572,2.72593 -0.0727,0.40499 -0.0411,0.48544 0.19075,0.48544 0.35077,0 2.78872,-2.3747 4.7915,-4.66719 2.14116,-2.45089 4.54703,-4.39736 6.51999,-5.275 1.66535,-0.74082 2.07019,-0.82891 4.4063,-0.9588 3.09435,-0.17206 5.09209,0.0915 5.71012,0.75336 0.54901,0.58793 0.63841,1.04628 0.43202,2.2151 -0.0959,0.54285 -0.23935,1.35668 -0.31889,1.80852 -0.0795,0.45183 -0.18531,1.94411 -0.23506,3.31617 -0.0763,2.10434 -0.0513,2.61265 0.16001,3.24872 0.23423,0.70519 0.28276,0.75405 0.74902,0.75405 0.27421,0 0.59512,0.0371 0.71314,0.0823 0.16379,0.0628 0.23634,-0.10509 0.30651,-0.70949 0.16589,-1.42886 1.05202,-5.89065 1.52184,-7.66267 0.36598,-1.3804 1.52519,-4.87915 2.22049,-6.70193 0.21525,-0.564299 0.39137,-1.055724 0.39137,-1.092053 0,-0.03633 -0.30912,-0.0197 -0.68693,0.03696 -1.94204,0.291229 -3.88694,-1.168463 -5.26505,-3.951533 -0.88772,-1.792741 -1.11493,-2.462922 -1.49952,-4.422996 -0.86229,-4.394614 -1.14877,-11.795856 -0.68799,-17.774579 0.1203,-1.560877 0.22008,-3.241246 0.22173,-3.734155 0.008,-2.296379 1.12158,-3.658463 2.46707,-3.016841 0.98407,0.46927 0.96398,0.27923 0.93733,8.863993 -0.0261,8.410303 0.0801,10.191204 0.84465,14.16792 0.50013,2.601197 0.5916,2.886345 1.39815,4.358357 0.74685,1.363045 1.05092,1.645281 1.50865,1.400312 0.38354,-0.205268 1.84825,-1.837006 2.11359,-2.354624 0.11749,-0.229197 0.56878,-1.009844 1.00286,-1.734774 0.43408,-0.724928 0.99007,-1.760985 1.23554,-2.302348 0.24546,-0.541365 0.68679,-1.346611 0.98072,-1.789439 0.29393,-0.442826 0.91939,-1.524035 1.38989,-2.402685 0.9023,-1.685006 2.93587,-5.182723 4.52028,-7.774808 2.82882,-4.627929 4.42388,-6.884088 5.2832,-7.472904 0.58668,-0.401999 1.45807,-0.410145 2.00771,-0.01877 0.51759,0.368555 0.93608,1.362455 0.8053,1.912573 -0.15881,0.668054 -1.02832,2.142436 -3.71807,6.304494 -3.11633,4.822145 -3.64078,5.721872 -5.05211,8.667231 -2.96262,6.182835 -5.14829,11.603665 -7.40999,18.378089 -1.45177,4.34844 -2.55443,9.54191 -2.54876,12.00455 l 0.002,1.03616 0.46096,-0.4387 c 0.25353,-0.24128 0.87527,-0.96703 1.38164,-1.61276 0.50637,-0.64573 1.29035,-1.62921 1.74219,-2.18551 1.76945,-2.17856 3.22373,-4.09562 4.08001,-5.37835 2.1008,-3.14707 3.59412,-4.31799 6.16648,-4.8352 2.11305,-0.42486 4.52612,-0.26287 5.80527,0.3897 0.331,0.16887 0.98739,0.64239 1.45864,1.05226 0.94622,0.823 0.90544,0.82566 1.79121,-0.11687 1.33281,-1.41821 4.07836,-7.693814 5.71787,-13.069543 0.18791,-0.616135 0.44581,-1.355498 0.57311,-1.643028 0.1273,-0.28753 0.40686,-0.993285 0.62124,-1.568345 0.21439,-0.57506 0.51478,-1.314423 0.66754,-1.643028 0.15276,-0.328606 0.35449,-1.034361 0.4483,-1.568345 0.22803,-1.297952 0.81585,-2.491911 1.40316,-2.850036 0.56666,-0.345535 1.58536,-0.373201 2.19193,-0.05953 1.19541,0.618168 1.37207,2.64948 0.41542,4.77664 -0.29557,0.657211 -0.61824,1.564611 -0.71704,2.016444 -0.0988,0.451833 -0.33716,1.359232 -0.52966,2.016444 -0.73519,2.509869 -1.81389,6.615722 -2.62921,10.007537 -1.42556,5.93042 -1.87071,7.96149 -2.30795,10.53032 -0.20275,1.19119 -0.42279,2.36745 -0.48897,2.6139 -0.0662,0.24646 -0.13569,0.81372 -0.15448,1.26058 -0.0188,0.44686 -0.0628,0.85887 -0.0979,0.91559 -0.035,0.0567 -0.16348,0.81368 -0.28539,1.68214 -0.12191,0.86846 -0.26465,1.75033 -0.3172,1.95971 -0.1419,0.5654 0.17163,0.47188 0.60156,-0.17944 0.20336,-0.30807 0.63991,-0.92981 0.97011,-1.38164 0.33021,-0.45183 0.81,-1.25841 1.06622,-1.79239 0.25622,-0.53399 0.62709,-1.18485 0.82416,-1.44636 0.19707,-0.26151 0.3603,-0.53037 0.36272,-0.59746 0.002,-0.0671 0.33512,-0.62152 0.73932,-1.23204 1.03131,-1.55777 3.41812,-3.7224 4.99021,-4.52568 1.1887,-0.60738 1.24582,-0.62024 3.02337,-0.68057 0.921,-0.12685 2.33939,0.449166 2.57049,-0.29949 0.44282,-1.45273 1.29376,-2.08503 2.55205,-1.89634 0.52808,0.0792 0.80917,0.23511 1.23964,0.68763 0.30619,0.32187 0.61463,0.80256 0.68543,1.06819 0.0749,0.28085 0.21701,0.47164 0.3397,0.45591 0.31062,-0.0398 3.34551,-1.19494 3.909,-1.48781 0.26633,-0.13842 1.08917,-0.50094 1.82853,-0.80559 0.73937,-0.30466 2.08366,-0.87108 2.98733,-1.25872 3.46653,-1.48704 6.44047,-2.02206 11.23966,-2.02206 1.96597,0 3.71308,0.083 4.71784,0.22399 7.49754,1.05247 12.9668,4.13718 16.70133,9.41971 0.88266,1.24852 2.06489,3.56329 2.4524,4.80172 1.03439,3.30577 0.45785,5.85991 -1.87725,8.31655 -1.95264,2.054257 -4.56213,3.514317 -8.39501,4.697167 -2.68514,0.82865 -9.41173,1.91522 -13.56183,2.1907 -0.78044,0.0518 -2.69606,0.22235 -4.25694,0.37899 -1.56087,0.15664 -4.24946,0.39027 -5.97464,0.51918 -1.72518,0.12891 -4.64903,0.39681 -6.49743,0.59534 -1.84841,0.19853 -4.16732,0.43604 -5.15314,0.52781 -1.99154,0.18539 -6.72504,0.84922 -10.1569,1.42442 -8.44346,1.41517 -26.04888,4.83864 -31.51628,6.12852 -1.56088,0.36824 -4.51833,1.03831 -6.57211,1.48903 -2.05379,0.45072 -5.44814,1.24874 -7.543,1.77337 -2.09486,0.52464 -5.05231,1.23624 -6.57211,1.58135 -2.39715,0.54432 -11.9415,3.07429 -12.06546,3.19824 -0.0245,0.0245 3.60439,0.0785 8.06423,0.11993 5.433031,-0.24967 10.786926,0.35729 16.17457,0.92437 9.99957,1.0525 13.57596,1.55129 21.43407,2.98932 16.56667,2.53272 27.5935,4.66939 42.77132,5.98947 6.15029,0.52677 6.41631,0.58059 7.40049,1.4971 0.6177,0.57523 0.66529,0.67345 0.66529,1.37314 0,1.81795 -1.33068,2.35463 -9.78191,3.94518 -17.43689,3.18198 -42.83999,7.80391 -49.4197,9.39592 -6.9209,1.6038 -13.56592,3.45837 -18.44674,5.14833 -10.103324,3.47887 -24.685616,10.52598 -26.579282,11.45789 -1.037819,0.54956 -2.382582,1.48522 -1.115666,1.80827 2.860206,0.9395 35.995348,12.46813 35.886668,13.49051 -0.10723,1.00866 -34.696228,-9.16923 -40.588373,-10.28483 z M 142.18236,91.368543 c 1.16622,-0.5388 2.49196,-1.65158 2.88461,-2.42123 0.23085,-0.45251 0.30153,-0.91839 0.32285,-2.12799 -0.20617,-2.215693 -2.40642,-2.807596 -3.89763,-1.51093 -1.22215,1.36239 -2.03718,3.54339 -1.94353,5.20084 0.0919,1.62689 0.60798,1.79528 2.6337,0.85938 z m -24.94577,-1.00258 c 0.37967,-0.53832 1.97114,-3.66342 1.97114,-3.87064 0,-0.0884 0.13443,-0.58148 0.29873,-1.09579 0.41604,-1.30232 0.39455,-2.6183 -0.0591,-3.61787 -0.35666,-0.7859 -1.01815,-1.60995 -1.29236,-1.60995 -0.15861,0 -1.00991,1.71417 -1.89158,3.80884 -0.54905,1.30444 -0.5658,1.39745 -0.56489,3.13669 9e-4,1.65829 0.0331,1.86225 0.43116,2.72594 0.23662,0.51344 0.51728,0.93354 0.62369,0.93354 0.10642,0 0.32385,-0.18485 0.48318,-0.41076 z m -29.79891,-3.66172 c 1.11384,-1.10837 2.23023,-2.50494 3.24499,-4.0594 0.75522,-1.15689 1.39853,-2.32596 1.31348,-2.38698 -0.0263,-0.0189 -0.3064,-0.18992 -0.62251,-0.38016 l -0.57475,-0.34589 -0.89488,0.89487 c -0.49218,0.49219 -1.22455,1.35873 -1.62749,1.92565 -0.90226,1.26945 -2.15326,3.80522 -2.297,4.656 -0.0972,0.57526 -0.0788,0.63169 0.20552,0.63169 0.18344,0 0.70014,-0.38599 1.25264,-0.93578 z"
       id="path3710"
       inkscape:connector-curvature="0"
       sodipodi:nodetypes="cscccccsccccccscsccsccssscccccccccccccssssccccccccccccsccccccsccccccccsccsccccsscsccccsscccssssccccscscccccccccscsssscscsscsscscscsscccsscscsscccccscsccsccsccscccsscccccscscsccscccccccccccccccscccscccccsccsccccsccccccsccccccsccccsccccccccccccsccscscssscsccccccccccscccccsccccccccccsccscccsccccccccccsc" />
  </g>
</svg>
