<?xml version="1.0" standalone="no"?>
<!DOCTYPE svg PUBLIC "-//W3C//DTD SVG 20010904//EN"
 "http://www.w3.org/TR/2001/REC-SVG-20010904/DTD/svg10.dtd">
<svg version="1.0" xmlns="http://www.w3.org/2000/svg"
 width="306.000000pt" height="306.000000pt" viewBox="0 0 306.000000 306.000000"
 preserveAspectRatio="xMidYMid meet">
<metadata>
Created by potrace 1.14, written by Peter Selinger 2001-2017
</metadata>
<g transform="translate(0.000000,306.000000) scale(0.100000,-0.100000)"
fill="#000000" stroke="none">
<path d="M0 1530 l0 -1040 1530 0 1530 0 0 1040 0 1040 -1530 0 -1530 0 0
-1040z m1540 295 l0 -85 -90 0 -90 0 0 85 0 85 90 0 90 0 0 -85z m-600 -69 c0
-132 8 -181 24 -141 3 8 27 29 53 45 81 52 182 37 220 -33 15 -27 18 -65 21
-254 l3 -223 -90 0 -91 0 0 190 c0 177 -1 191 -20 210 -24 24 -38 25 -70 3
-48 -33 -49 -39 -50 -225 l0 -178 -85 0 -85 0 0 375 0 375 85 0 85 0 0 -144z
m600 -348 c0 -261 -1 -285 -20 -323 -31 -65 -118 -104 -200 -90 l-40 7 0 63
c0 62 1 64 30 70 17 4 35 15 40 25 6 11 10 122 10 268 0 137 3 252 7 255 3 4
44 7 90 7 l83 0 0 -282z m246 155 c21 -65 40 -122 44 -126 4 -4 24 49 46 118
l39 125 67 0 66 0 22 -72 c11 -40 29 -98 39 -128 l18 -55 39 125 40 125 66 3
67 3 -88 -263 -88 -263 -65 -3 -65 -3 -38 126 c-21 69 -41 125 -45 125 -3 0
-23 -56 -44 -125 l-39 -125 -66 0 -66 0 -69 223 c-38 122 -75 241 -82 265
l-13 42 89 0 89 0 37 -117z m764 -318 l0 -95 -100 0 -100 0 0 95 0 95 100 0
100 0 0 -95z"/>
</g>
</svg>
