<?xml version="1.0" encoding="UTF-8" standalone="no"?>
<!-- Created with Inkscape (http://www.inkscape.org/) -->

<svg
   xmlns:dc="http://purl.org/dc/elements/1.1/"
   xmlns:cc="http://creativecommons.org/ns#"
   xmlns:rdf="http://www.w3.org/1999/02/22-rdf-syntax-ns#"
   xmlns:svg="http://www.w3.org/2000/svg"
   xmlns="http://www.w3.org/2000/svg"
   xmlns:sodipodi="http://sodipodi.sourceforge.net/DTD/sodipodi-0.dtd"
   xmlns:inkscape="http://www.inkscape.org/namespaces/inkscape"
   width="1400"
   height="650"
   viewBox="0 0 370.41668 171.97916"
   version="1.1"
   id="svg8"
   sodipodi:docname="logo.svg"
   inkscape:version="0.92.2 2405546, 2018-03-11">
  <defs
     id="defs2">
    <inkscape:path-effect
       effect="perspective-envelope"
       up_left_point="31.833198,195.13559"
       up_right_point="176.83675,195.13559"
       down_left_point="31.833198,203.87558"
       down_right_point="291.89628,210.15903"
       id="path-effect5071"
       is_visible="true"
       deform_type="perspective"
       horizontal_mirror="false"
       vertical_mirror="false"
       overflow_perspective="false" />
    <inkscape:path-effect
       effect="mirror_symmetry"
       start_point="148.53512,57.87063"
       end_point="148.53512,62.61137"
       center_point="148.53512,60.241"
       id="path-effect4987"
       is_visible="true"
       mode="free"
       discard_orig_path="false"
       fuse_paths="false"
       oposite_fuse="false" />
    <inkscape:path-effect
       effect="perspective-envelope"
       up_left_point="214.21548,722.6545"
       up_right_point="288.27501,717.60373"
       down_left_point="224.00195,809.11914"
       down_right_point="298.12399,811.64452"
       id="path-effect4950"
       is_visible="true"
       deform_type="perspective"
       horizontal_mirror="false"
       vertical_mirror="false"
       overflow_perspective="false" />
    <inkscape:path-effect
       effect="transform_2pts"
       start="268.591,739.57455"
       end="291.55546,814.04367"
       id="path-effect4946"
       is_visible="true"
       first_knot="1"
       last_knot="17"
       helper_size="3"
       stretch="1"
       offset="0"
       elastic="false"
       from_original_width="false"
       flip_vertical="false"
       flip_horizontal="false"
       lock_lenght="false"
       lock_angle="false" />
    <inkscape:path-effect
       effect="bend_path"
       id="path-effect4944"
       is_visible="true"
       bendpath="m 224.00195,766.26562 59.22229,-10.35406"
       prop_scale="1"
       scale_y_rel="false"
       vertical="false"
       bendpath-nodetypes="cc" />
    <inkscape:path-effect
       effect="envelope"
       id="path-effect4942"
       is_visible="true"
       yy="true"
       xx="true"
       bendpath1="m 224.00195,723.41211 h 65.28321"
       bendpath2="m 289.28516,723.41211 v 85.70703"
       bendpath3="m 224.00195,809.11914 97.10302,47.47717"
       bendpath4="m 224.00195,723.41211 v 85.70703"
       bendpath3-nodetypes="cc" />
    <inkscape:path-effect
       effect="mirror_symmetry"
       start_point="152.16792,-16.482489"
       end_point="152.16792,15.503411"
       center_point="152.16792,-0.489539"
       id="path-effect4810"
       is_visible="true"
       mode="free"
       discard_orig_path="false"
       fuse_paths="true"
       oposite_fuse="false" />
    <inkscape:path-effect
       effect="mirror_symmetry"
       start_point="140.48,77.392477"
       end_point="141.68355,109.37834"
       center_point="141.08177,93.385408"
       id="path-effect4808"
       is_visible="true"
       mode="free"
       discard_orig_path="false"
       fuse_paths="true"
       oposite_fuse="false" />
    <inkscape:path-effect
       effect="envelope"
       id="path-effect4785"
       is_visible="true"
       yy="true"
       xx="false"
       bendpath1="M 97.944399,90.912225 C 109.48939,73.594097 161.84151,72.498608 175.26344,90.644955"
       bendpath2="m 176.83681,90.262579 c -1.54434,11.409521 -0.65753,2.755048 -0.9052,17.554371"
       bendpath3="M 97.944399,109.42056 C 117.63857,97.954032 154.57353,95.118391 175.26344,107.54968"
       bendpath4="M 97.944399,78.885096 V 100.06613"
       bendpath3-nodetypes="cc"
       bendpath1-nodetypes="cc"
       bendpath2-nodetypes="cc" />
    <inkscape:path-effect
       effect="envelope"
       id="path-effect4760"
       is_visible="true"
       yy="true"
       xx="false"
       bendpath1="m 99.144861,88.410102 c 29.563009,-15.587425 54.202819,-13.559601 75.581799,0"
       bendpath2="M 174.72666,88.410102 V 109.59119"
       bendpath3="M 99.211678,108.38848 C 132.72152,96.150941 156.78048,97.978992 175.2612,110.19255"
       bendpath4="M 99.144861,88.410102 V 109.59119"
       bendpath1-nodetypes="cc"
       bendpath3-nodetypes="cc" />
    <inkscape:path-effect
       effect="vonkoch"
       id="path-effect4758"
       is_visible="true"
       ref_path="M 369.68164,408.17578 H 663.92969"
       generator="m 369.68164,448.20312 h 98.08268 m 98.08269,0 h 98.08268"
       similar_only="false"
       nbgenerations="1"
       drawall="true"
       maxComplexity="1000" />
    <inkscape:path-effect
       effect="transform_2pts"
       start="370.58,368.14844"
       end="652.19531,368.14844"
       id="path-effect1053"
       is_visible="true"
       first_knot="1"
       last_knot="36"
       helper_size="3"
       stretch="1"
       offset="0"
       elastic="false"
       from_original_width="false"
       flip_vertical="false"
       flip_horizontal="false"
       lock_lenght="false"
       lock_angle="false" />
    <inkscape:path-effect
       effect="spiro"
       id="path-effect1051"
       is_visible="true" />
    <inkscape:path-effect
       effect="ellipse_5pts"
       id="path-effect1049"
       is_visible="true" />
    <inkscape:path-effect
       effect="bspline"
       id="path-effect1047"
       is_visible="true"
       weight="33.333333"
       steps="2"
       helper_size="0"
       apply_no_weight="true"
       apply_with_weight="true"
       only_selected="false" />
    <inkscape:path-effect
       effect="bend_path"
       id="path-effect1045"
       is_visible="true"
       bendpath="m 374.68164,409.60435 c 118.25028,1.9115 170.04327,-3.48501 289.24805,-1.42857"
       prop_scale="1"
       scale_y_rel="false"
       vertical="false"
       bendpath-nodetypes="cc" />
    <inkscape:path-effect
       effect="bend_path"
       id="path-effect1033"
       is_visible="true"
       bendpath="m 96.866631,100.90946 c 25.957739,-9.973634 52.793149,-9.170184 80.309939,0"
       prop_scale="1"
       scale_y_rel="false"
       vertical="false"
       bendpath-nodetypes="cc" />
    <inkscape:path-effect
       effect="mirror_symmetry"
       start_point="178.43021,-26.522593"
       end_point="178.43021,5.4633067"
       center_point="178.43021,-10.529643"
       id="path-effect4810-3"
       is_visible="true"
       mode="free"
       discard_orig_path="false"
       fuse_paths="true"
       oposite_fuse="false" />
  </defs>
  <sodipodi:namedview
     id="base"
     pagecolor="#ffffff"
     bordercolor="#666666"
     borderopacity="1.0"
     inkscape:pageopacity="0.0"
     inkscape:pageshadow="2"
     inkscape:zoom="0.7071068"
     inkscape:cx="664.9406"
     inkscape:cy="121.89471"
     inkscape:document-units="mm"
     inkscape:current-layer="layer6"
     showgrid="false"
     inkscape:window-width="2560"
     inkscape:window-height="1012"
     inkscape:window-x="0"
     inkscape:window-y="28"
     inkscape:window-maximized="0"
     inkscape:snap-others="false"
     inkscape:object-nodes="false"
     inkscape:snap-nodes="false"
     fit-margin-top="0"
     fit-margin-left="0"
     fit-margin-right="0"
     fit-margin-bottom="0"
     units="px"
     showguides="true" />
  <metadata
     id="metadata5">
    <rdf:RDF>
      <cc:Work
         rdf:about="">
        <dc:format>image/svg+xml</dc:format>
        <dc:type
           rdf:resource="http://purl.org/dc/dcmitype/StillImage" />
        <dc:title></dc:title>
      </cc:Work>
    </rdf:RDF>
  </metadata>
  <g
     inkscape:groupmode="layer"
     id="layer6"
     inkscape:label="CC"
     style="display:inline"
     transform="translate(-58.095494,77.18275)">
    <g
       id="g5090"
       transform="matrix(1.4284848,0,0,1.4284848,-20.452869,-146.46568)">
      <path
         sodipodi:nodetypes="ccccc"
         inkscape:connector-curvature="0"
         id="rect4974"
         d="m 146.08785,63.57505 c 2.00915,-1.051689 3.53287,-0.716412 4.92319,0 v 11.45536 c -1.33947,-0.326524 -3.24243,-0.6789 -4.92319,-0.867291 z"
         style="opacity:1;fill:#000000;fill-opacity:1;stroke:none;stroke-width:0.28458613;stroke-miterlimit:4;stroke-dasharray:none;stroke-opacity:1" />
      <path
         sodipodi:nodetypes="ccccc"
         inkscape:connector-curvature="0"
         id="rect4977"
         d="m 146.06281,56.231294 c 1.6077,-0.849813 3.24786,-1.017899 4.94449,0 v 0.946188 h -4.94449 z"
         style="opacity:1;fill:#000000;fill-opacity:1;stroke:none;stroke-width:0.373808;stroke-miterlimit:4;stroke-dasharray:none;stroke-opacity:1" />
      <path
         inkscape:original-d="m 146.43034,57.87063 v 4.740739 z m 2.10478,0 v 4.28913 z m -1.05265,0 v 4.37945 z"
         inkscape:path-effect="#path-effect4987"
         sodipodi:nodetypes="ccccccccc"
         inkscape:connector-curvature="0"
         id="path4980"
         d="m 146.43034,57.87063 v 4.740739 z m 2.10478,0 v 4.28913 z m -1.05265,0 v 4.37945 z m 3.15743,0 v 4.740739 z m -2.10478,0 v 4.28913 z m 1.05265,0 v 4.37945 z"
         style="fill:none;stroke:#000000;stroke-width:0.44817609;stroke-linecap:square;stroke-linejoin:miter;stroke-miterlimit:4;stroke-dasharray:none;stroke-opacity:1;paint-order:stroke fill markers" />
    </g>
    <path
       style="display:inline;fill:#000000;fill-opacity:1;stroke:none;stroke-width:0.26458332px;stroke-linecap:butt;stroke-linejoin:miter;stroke-opacity:1"
       d="m 115.64978,29.587568 -2.53318,1.78025 v 9.5064 l 2.53318,-1.78026 z"
       id="path873-6-5"
       inkscape:connector-curvature="0"
       sodipodi:nodetypes="ccccc" />
    <path
       style="display:inline;fill:#000000;fill-opacity:1;stroke:none;stroke-width:0.26458332px;stroke-linecap:butt;stroke-linejoin:miter;stroke-opacity:1"
       d="m 118.49715,33.963488 -1.8557,1.30431 h 19.03192 l 1.85519,-1.30379 v -5.3e-4 z"
       id="path873-6-56"
       inkscape:connector-curvature="0"
       sodipodi:nodetypes="cccccc" />
    <path
       style="display:inline;fill:#000000;fill-opacity:1;stroke:none;stroke-width:0.26458332px;stroke-linecap:butt;stroke-linejoin:miter;stroke-opacity:1"
       d="m 118.49715,37.601518 -1.8557,1.30432 h 19.03192 l 1.85519,-1.3038 v -5.3e-4 z"
       id="path873-6-56-9"
       inkscape:connector-curvature="0"
       sodipodi:nodetypes="cccccc" />
    <path
       style="opacity:1;fill:#000000;fill-opacity:1;stroke:none;stroke-width:0.33170086;stroke-miterlimit:4;stroke-dasharray:none;stroke-opacity:1"
       d="M 140.00379,-10.878684 V 7.5421465 l 2.46195,-1.525458 V -13.493549 c 0,0 -0.94349,0.600084 -1.4765,1.253961 -0.53294,0.653797 -0.98545,1.360904 -0.98545,1.360904 z m 76.85284,0 V 7.5421465 l -2.46195,-1.525458 V -13.493549 c 0,0 0.94349,0.600084 1.4765,1.253961 0.53294,0.653797 0.98545,1.360904 0.98545,1.360904 z m -73.09295,-3.73837 V 5.3323675 c 0,0 2.10535,-0.774541 3.49806,-1.34598 v 0 c 0.96851,-0.397208 1.2169,-0.708089 1.2169,-0.708089 V -17.772365 c 0,0 -1.40377,0.450667 -2.33189,1.049944 h -1e-5 c -1.34144,0.865854 -2.38306,2.105367 -2.38306,2.105367 z m 69.33306,0 V 5.3323675 c 0,0 -2.10535,-0.774541 -3.49806,-1.34598 v 0 c -0.96851,-0.397208 -1.2169,-0.708089 -1.2169,-0.708089 V -17.772365 c 0,0 1.40377,0.450667 2.33189,1.049944 h 1e-5 c 1.34144,0.865854 2.38306,2.105367 2.38306,2.105367 z m -62.62493,-4.183505 V 2.5585585 c 0,0 3.53006,-0.975911 5.72881,-1.57581104 v 0 c 0.77922,-0.21259 0.58792,-0.41421 1.31252,-0.59329 v -22.03295546 0.288532 h -0.97426 c -0.39782,0.122303 -0.873,0.272868 -1.40567,0.451153 v 0 c -2.28162,0.763573 -4.6614,2.103254 -4.6614,2.103254 z m 55.9168,0 V 2.5585585 c 0,0 -3.53006,-0.975911 -5.72881,-1.57581104 v 0 c -0.77922,-0.21259 -0.58792,-0.41421 -1.31252,-0.59329 v -22.03295546 0.288532 h 0.97426 c 0.39782,0.122303 0.873,0.272868 1.40567,0.451153 v 0 c 2.28162,0.763573 4.6614,2.103254 4.6614,2.103254 z m -45.46682,-3.62852 v 22.16059746 c 0,0 2.57314,-0.45788 4.7374,-0.81939996 2.16419,-0.36151 4.13791,-0.62751 4.13791,-0.62751 V -23.963527 c 0,0 -2.50303,0.240821 -4.78091,0.622462 -2.27828,0.381704 -4.0944,0.911986 -4.0944,0.911986 z m 35.01684,0 v 22.16059746 c 0,0 -2.57314,-0.45788 -4.7374,-0.81939996 -2.16419,-0.36151 -4.13791,-0.62751 -4.13791,-0.62751 V -23.963527 c 0,0 2.50303,0.240821 4.78091,0.622462 2.27828,0.381704 4.0944,0.911986 4.0944,0.911986 z m -22.67437,-1.833716 v 22.1913935 c 0,0 2.34885,-0.20179 4.74097,-0.3082 0.11829,-0.005 0.23682,-0.0103 0.35558,-0.0152 0.0231,-9.493e-4 0.0463,-0.00189 0.0694,-0.00282 0.0232,9.287e-4 0.0463,0.00187 0.0694,0.00282 0.11876,0.0049 0.23729,0.0102 0.35558,0.0152 2.39212,0.10641 4.74097,0.3082 4.74097,0.3082 v -22.1913935 2.1e-5 c 0,0 -2.25199,-0.150193 -4.7714,-0.176213 -0.12455,-0.0013 -0.24935,-0.0024 -0.37441,-0.0032 -0.007,-4.4e-5 -0.0134,-8.7e-5 -0.0201,-1.29e-4 -0.007,4.2e-5 -0.0134,8.5e-5 -0.0201,1.29e-4 -0.12506,8.22e-4 -0.24986,0.0019 -0.37441,0.0032 -2.51941,0.02602 -4.7714,0.176213 -4.7714,0.176213 z"
       id="rect918"
       inkscape:connector-curvature="0"
       sodipodi:nodetypes="ccccccccccccccccccccccccccccccccccccccccccc"
       inkscape:path-effect="#path-effect4810-3"
       inkscape:original-d="M 140.00379,-10.878684 V 7.5421465 l 2.46195,-1.525458 V -13.493549 c 0,0 -0.94349,0.600084 -1.4765,1.253961 -0.53294,0.653797 -0.98545,1.360904 -0.98545,1.360904 z m 3.75989,-3.73837 V 5.3323675 c 0,0 2.10535,-0.774541 3.49806,-1.34598 v 0 c 0.96851,-0.397208 1.2169,-0.708089 1.2169,-0.708089 V -17.772365 c 0,0 -1.40377,0.450667 -2.33189,1.049944 h -1e-5 c -1.34144,0.865854 -2.38306,2.105367 -2.38306,2.105367 z m 6.70813,-4.183505 V 2.5585585 c 0,0 3.53006,-0.975911 5.72881,-1.57581104 v 0 c 0.77922,-0.21259 0.58792,-0.41421 1.31252,-0.59329 v -22.03295546 0.288532 h -0.97426 c -0.39782,0.122303 -0.873,0.272868 -1.40567,0.451153 v 0 c -2.28162,0.763573 -4.6614,2.103254 -4.6614,2.103254 z m 10.44998,-3.62852 v 22.16059746 c 0,0 2.57314,-0.45788 4.7374,-0.81939996 2.16419,-0.36151 4.13791,-0.62751 4.13791,-0.62751 V -23.963527 c 0,0 -2.50303,0.240821 -4.78091,0.622462 -2.27828,0.381704 -4.0944,0.911986 -4.0944,0.911986 z m 12.34247,-1.833716 v 22.1913935 c 0,0 2.34885,-0.20179 4.74097,-0.3082 0.11829,-0.005 0.23682,-0.0103 0.35558,-0.0152 2.61953,-0.107569 5.45557,-0.0821 5.45557,-0.0821 V -24.312005 c 0,0 -2.64705,-0.148254 -5.40631,-0.130182 -0.12506,8.22e-4 -0.24986,0.0019 -0.37441,0.0032 -2.51941,0.02602 -4.7714,0.176213 -4.7714,0.176213 z" />
    <path
       style="opacity:1;fill:#000000;fill-opacity:1;stroke:none;stroke-width:0.24398425;stroke-miterlimit:4;stroke-dasharray:none;stroke-opacity:1"
       d="m 155.71974,25.115208 c 2.77623,-0.40326 5.76489,-0.6649 8.81211,-0.88751 v 9.14231 l -8.81211,0.20482 z"
       id="rect4818-62"
       inkscape:connector-curvature="0"
       sodipodi:nodetypes="ccccc" />
    <path
       style="opacity:1;fill:#000000;fill-opacity:1;stroke:none;stroke-width:0.24045226;stroke-miterlimit:4;stroke-dasharray:none;stroke-opacity:1"
       d="m 155.94282,51.678539 8.68455,-0.33301 v 8.670168 h -8.68455 z"
       id="rect4818-6-6"
       inkscape:connector-curvature="0"
       sodipodi:nodetypes="ccccc" />
    <path
       style="opacity:1;fill:#000000;fill-opacity:1;stroke:none;stroke-width:0.24398425;stroke-miterlimit:4;stroke-dasharray:none;stroke-opacity:1"
       d="m 200.93841,25.115208 c -2.77623,-0.40326 -5.76489,-0.6649 -8.81211,-0.88751 v 9.14231 l 8.81211,0.20482 z"
       id="rect4818-62-7"
       inkscape:connector-curvature="0"
       sodipodi:nodetypes="ccccc" />
    <path
       style="opacity:1;fill:#000000;fill-opacity:1;stroke:none;stroke-width:0.24045226;stroke-miterlimit:4;stroke-dasharray:none;stroke-opacity:1"
       d="m 200.78215,51.678539 -8.68455,-0.33301 v 8.670168 h 8.68455 z"
       id="rect4818-6-6-9"
       inkscape:connector-curvature="0"
       sodipodi:nodetypes="ccccc" />
    <path
       style="display:inline;opacity:1;fill:#000000;fill-opacity:1;stroke:none;stroke-width:0.27774459px;stroke-linecap:butt;stroke-linejoin:miter;stroke-opacity:1"
       d="m 178.45938,1.8860775 c -14.48301,0.0127 -28.93733,3.42717 -40.33707,10.2050695 v 30.15112 l -26.57254,-0.131239 -2.40291,1.762549 v 5.39192 L 84.400123,66.604619 H 86.8381 v 3.32641 l -2.437977,1.8116 c -0.02967,4.328818 -0.04234,8.657608 -0.04234,12.986498 13.004802,-9.8e-5 26.009607,-0.006 39.014407,-0.01019 v -8.21762 h 4.73789 v 8.255 H 280.4635 L 233.22297,76.342094 218.96957,59.571923 V 12.091103 C 207.4541,5.2625435 192.94239,1.8733735 178.45938,1.8860345 Z M 166.27976,22.264167 v 12.654521 l -12.19718,0.283189 V 23.492508 c 3.84267,-0.558152 7.97942,-0.920231 12.19718,-1.228341 z m 24.03161,0 c 4.21777,0.30811 8.35451,0.670189 12.19719,1.228341 v 11.709369 l -12.19719,-0.283189 z m -24.03161,27.21901 v 12.17703 H 154.08258 V 49.951368 Z m 24.03161,0 12.19719,0.468191 v 11.708839 h -12.19719 z m -64.80586,0.394761 4.99346,8.40036 1.57325,-1.38415 1.48928,3.32716 3.13804,2.771931 v 6.335919 h -21.30298 v -7.952071 l 1.72007,-2.3774 0.61323,1.746641 1.21861,-0.37942 3.22263,-6.32926 0.96124,-0.344979 z m -10.10895,20.171389 h 21.30298 v 4.818232 h -21.30298 z"
       id="path5065"
       inkscape:connector-curvature="0"
       sodipodi:nodetypes="cccccccccccccccccccccccccccccccccccccccccccccccccccccccccccc" />
    <path
       style="display:inline;opacity:1;fill:#000000;fill-opacity:1;stroke:none;stroke-width:0.26458332px;stroke-linecap:butt;stroke-linejoin:miter;stroke-opacity:1"
       d="m 138.12231,-23.744327 v 8.848015 c 11.59027,-14.116375 58.29912,-23.26302 80.84726,0 v -8.848015 c -19.82518,-22.424919 -64.02909,-17.773208 -80.84726,0 z"
       id="path882"
       inkscape:connector-curvature="0"
       sodipodi:nodetypes="ccccc" />
    <g
       aria-label="ASRC"
       style="font-style:normal;font-weight:normal;font-size:13.91359711px;line-height:1.25;font-family:sans-serif;letter-spacing:0px;word-spacing:0px;display:inline;opacity:1;fill:#000000;fill-opacity:1;stroke:none;stroke-width:0.34783992"
       id="text5075">
      <path
         d="m 260.16733,27.833391 h -16.2956 l -4.00712,9.617079 h -9.55029 l 22.17271,-51.090732 h 0.53428 l 22.17271,51.090732 h -11.21993 z m -3.20569,-8.147803 -4.74175,-11.9545635 -4.94211,11.9545635 z"
         style="font-style:normal;font-variant:normal;font-weight:bold;font-stretch:normal;font-size:66.78527069px;font-family:'Josefin Sans';-inkscape-font-specification:'Josefin Sans Bold';stroke-width:0.34783992"
         id="path848" />
      <path
         d="m 308.54074,0.18428893 q -6.41139,-3.53961933 -11.15314,-3.53961933 -3.20569,0 -5.0089,1.2689201 -1.73641,1.26892016 -1.73641,3.8067605 0,2.3374844 2.53784,4.1406867 2.60462,1.7364171 6.87888,3.3392636 3.47283,1.2689205 5.94389,2.9385515 2.47105,1.602847 4.0739,4.474614 1.66963,2.871766 1.66963,7.279594 0,3.80676 -2.00356,7.079239 -1.93677,3.205693 -5.74353,5.142466 -3.80676,1.869987 -9.0828,1.869987 -4.40782,0 -8.74887,-1.26892 -4.34104,-1.335705 -8.08101,-4.007116 l 4.27425,-7.546736 q 2.53784,1.869988 5.81032,3.072123 3.27248,1.202134 5.87711,1.202134 3.07212,0 5.34282,-1.26892 2.2707,-1.335705 2.2707,-4.274257 0,-3.80676 -7.14603,-6.611742 -4.20747,-1.669632 -7.01245,-3.205693 -2.80498,-1.536061 -4.87533,-4.4078276 -2.00355,-2.8717667 -2.00355,-7.2128093 0,-6.3446007 4.14068,-10.2181464 4.20748,-3.8735457 11.15314,-4.2074717 5.4764,0 9.14959,1.26892 3.67319,1.2021347 7.14602,3.4728339 z"
         style="font-style:normal;font-variant:normal;font-weight:bold;font-stretch:normal;font-size:66.78527069px;font-family:'Josefin Sans';-inkscape-font-specification:'Josefin Sans Bold';stroke-width:0.34783992"
         id="path850" />
      <path
         d="M 347.80943,37.45047 337.45772,21.822717 h -6.47817 V 37.45047 h -9.68387 v -49.153959 h 14.89312 q 9.14958,0 14.15847,4.4746129 5.07568,4.4078278 5.07568,12.088134 0,4.5413984 -1.93677,8.5485151 -1.86999,3.94033 -5.81032,6.21103 L 359.09614,37.45047 Z M 330.97955,12.472779 h 6.87888 q 3.94033,0 5.74353,-2.270699 1.8032,-2.3374849 1.8032,-5.0088958 0,-2.6714108 -1.53606,-5.07568055 -1.53606,-2.47105505 -5.94389,-2.47105505 h -6.94566 z"
         style="font-style:normal;font-variant:normal;font-weight:bold;font-stretch:normal;font-size:66.78527069px;font-family:'Josefin Sans';-inkscape-font-specification:'Josefin Sans Bold';stroke-width:0.34783992"
         id="path852" />
      <path
         d="m 402.24987,33.376568 q -1.86999,1.536062 -5.94389,3.072123 -4.07391,1.536061 -8.88245,1.536061 -7.6803,0 -13.35705,-3.339263 -5.67675,-3.339264 -8.68208,-8.949227 -3.00534,-5.676748 -3.00534,-12.42206 0,-7.4131651 3.00534,-13.22348362 3.00533,-5.81031858 8.41494,-9.01601158 5.40961,-3.2724778 12.48885,-3.2724778 4.47461,0 8.28137,1.202134 3.80676,1.2021353 6.67853,3.0053376 l -3.80676,9.1495821 q -5.27604,-4.0071162 -10.81922,-4.0071162 -3.73997,0 -7.01245,2.07034336 -3.27248,2.07034344 -5.20925,5.67674804 -1.93678,3.5396193 -1.93678,7.8806621 0,4.741754 1.80321,8.348159 1.8032,3.539619 5.14246,5.543177 3.33927,2.003558 7.81388,2.003558 3.6064,0 6.47817,-1.135349 2.87177,-1.202135 4.5414,-2.804982 z"
         style="font-style:normal;font-variant:normal;font-weight:bold;font-stretch:normal;font-size:66.78527069px;font-family:'Josefin Sans';-inkscape-font-specification:'Josefin Sans Bold';stroke-width:0.34783992"
         id="path854" />
    </g>
    <g
       aria-label="WHITEFACE"
       style="font-style:normal;font-weight:normal;font-size:15.85743237px;line-height:1.25;font-family:sans-serif;letter-spacing:0px;word-spacing:0px;display:inline;opacity:1;fill:#000000;fill-opacity:1;stroke:none;stroke-width:0.39643577"
       id="text5079">
      <path
         d="m 245.21216,62.918226 -3.70007,-9.218454 -4.31322,9.26074 -6.2584,-16.174581 h 3.59435 l 3.06577,9.007022 2.36804,-5.941252 -1.2263,-3.06577 h 3.04462 l 3.48864,8.647586 2.6429,-8.647586 h 3.29835 z"
         style="font-style:normal;font-variant:normal;font-weight:bold;font-stretch:normal;font-size:21.14324379px;font-family:'Josefin Sans';-inkscape-font-specification:'Josefin Sans Bold';letter-spacing:5.74435568px;stroke-width:0.39643577"
         id="path857" />
      <path
         d="m 272.74331,62.241642 h -3.06577 v -6.32183 h -6.95613 v 6.32183 h -3.06577 V 46.680215 h 3.06577 v 6.279543 h 6.95613 v -6.279543 h 3.06577 z"
         style="font-style:normal;font-variant:normal;font-weight:bold;font-stretch:normal;font-size:21.14324379px;font-family:'Josefin Sans';-inkscape-font-specification:'Josefin Sans Bold';letter-spacing:5.74435568px;stroke-width:0.39643577"
         id="path859" />
      <path
         d="m 285.56206,46.680215 v 15.561427 h -3.06577 V 46.680215 Z"
         style="font-style:normal;font-variant:normal;font-weight:bold;font-stretch:normal;font-size:21.14324379px;font-family:'Josefin Sans';-inkscape-font-specification:'Josefin Sans Bold';letter-spacing:5.74435568px;stroke-width:0.39643577"
         id="path861" />
      <path
         d="m 304.77334,46.680215 v 2.960054 h -3.78464 v 12.601373 h -3.06577 V 49.640269 h -3.63664 v -2.960054 z"
         style="font-style:normal;font-variant:normal;font-weight:bold;font-stretch:normal;font-size:21.14324379px;font-family:'Josefin Sans';-inkscape-font-specification:'Josefin Sans Bold';letter-spacing:5.74435568px;stroke-width:0.39643577"
         id="path863" />
      <path
         d="m 324.09034,46.680215 v 2.960054 h -7.54814 v 3.319489 h 6.68126 v 2.960054 h -6.68126 v 3.361776 h 7.84414 v 2.960054 H 313.47643 V 46.680215 Z"
         style="font-style:normal;font-variant:normal;font-weight:bold;font-stretch:normal;font-size:21.14324379px;font-family:'Josefin Sans';-inkscape-font-specification:'Josefin Sans Bold';letter-spacing:5.74435568px;stroke-width:0.39643577"
         id="path865" />
      <path
         d="m 343.02841,46.680215 v 2.960054 h -6.66012 v 3.530921 h 5.7721 v 2.960055 h -5.7721 v 6.110397 h -3.06577 V 46.680215 Z"
         style="font-style:normal;font-variant:normal;font-weight:bold;font-stretch:normal;font-size:21.14324379px;font-family:'Josefin Sans';-inkscape-font-specification:'Josefin Sans Bold';letter-spacing:5.74435568px;stroke-width:0.39643577"
         id="path867" />
      <path
         d="m 357.93407,59.197015 h -5.15896 l -1.26859,3.044627 h -3.02348 l 7.01955,-16.174582 h 0.16915 l 7.01956,16.174582 h -3.55207 z m -1.01488,-2.579476 -1.50117,-3.78464 -1.5646,3.78464 z"
         style="font-style:normal;font-variant:normal;font-weight:bold;font-stretch:normal;font-size:21.14324379px;font-family:'Josefin Sans';-inkscape-font-specification:'Josefin Sans Bold';letter-spacing:5.74435568px;stroke-width:0.39643577"
         id="path869" />
      <path
         d="m 381.28083,60.951904 q -0.59201,0.486295 -1.88175,0.972589 -1.28974,0.486295 -2.81205,0.486295 -2.43147,0 -4.22865,-1.057162 -1.79718,-1.057162 -2.74862,-2.833195 -0.95145,-1.797176 -0.95145,-3.932643 0,-2.3469 0.95145,-4.186363 0.95144,-1.839462 2.66405,-2.854337 1.7126,-1.036019 3.95378,-1.036019 1.4166,0 2.62177,0.380578 1.20516,0.380578 2.11432,0.951446 l -1.20516,2.896624 q -1.67032,-1.268594 -3.42521,-1.268594 -1.18402,0 -2.22004,0.65544 -1.03602,0.655441 -1.64917,1.797176 -0.61316,1.120592 -0.61316,2.494903 0,1.50117 0.57087,2.642905 0.57087,1.120592 1.62803,1.75489 1.05716,0.634297 2.47376,0.634297 1.14173,0 2.05089,-0.359435 0.90916,-0.380579 1.43774,-0.888017 z"
         style="font-style:normal;font-variant:normal;font-weight:bold;font-stretch:normal;font-size:21.14324379px;font-family:'Josefin Sans';-inkscape-font-specification:'Josefin Sans Bold';letter-spacing:5.74435568px;stroke-width:0.39643577"
         id="path871" />
      <path
         d="m 400.71048,46.680215 v 2.960054 h -7.54813 v 3.319489 h 6.68126 v 2.960054 h -6.68126 v 3.361776 h 7.84414 v 2.960054 H 390.09658 V 46.680215 Z"
         style="font-style:normal;font-variant:normal;font-weight:bold;font-stretch:normal;font-size:21.14324379px;font-family:'Josefin Sans';-inkscape-font-specification:'Josefin Sans Bold';letter-spacing:5.74435568px;stroke-width:0.39643577"
         id="path873" />
    </g>
  </g>
</svg>
