<?xml version="1.0" encoding="UTF-8" standalone="no"?>
<!-- Created with Inkscape (http://www.inkscape.org/) -->

<svg
   xmlns:dc="http://purl.org/dc/elements/1.1/"
   xmlns:cc="http://creativecommons.org/ns#"
   xmlns:rdf="http://www.w3.org/1999/02/22-rdf-syntax-ns#"
   xmlns:svg="http://www.w3.org/2000/svg"
   xmlns="http://www.w3.org/2000/svg"
   xmlns:sodipodi="http://sodipodi.sourceforge.net/DTD/sodipodi-0.dtd"
   xmlns:inkscape="http://www.inkscape.org/namespaces/inkscape"
   width="52.601646mm"
   height="34.427582mm"
   viewBox="0 0 52.601646 34.427582"
   version="1.1"
   id="svg8"
   inkscape:version="0.92.2 5c3e80d, 2017-08-06"
   sodipodi:docname="drawing.svg">
  <defs
     id="defs2" />
  <sodipodi:namedview
     id="base"
     pagecolor="#ffffff"
     bordercolor="#666666"
     borderopacity="1.0"
     inkscape:pageopacity="0.0"
     inkscape:pageshadow="2"
     inkscape:zoom="1.4"
     inkscape:cx="250.81575"
     inkscape:cy="-5.0781922"
     inkscape:document-units="mm"
     inkscape:current-layer="flowRoot3699"
     showgrid="false"
     inkscape:window-width="1574"
     inkscape:window-height="807"
     inkscape:window-x="12"
     inkscape:window-y="40"
     inkscape:window-maximized="0"
     fit-margin-top="0"
     fit-margin-left="0"
     fit-margin-right="0"
     fit-margin-bottom="0" />
  <metadata
     id="metadata5">
    <rdf:RDF>
      <cc:Work
         rdf:about="">
        <dc:format>image/svg+xml</dc:format>
        <dc:type
           rdf:resource="http://purl.org/dc/dcmitype/StillImage" />
        <dc:title></dc:title>
      </cc:Work>
    </rdf:RDF>
  </metadata>
  <g
     inkscape:label="Layer 1"
     inkscape:groupmode="layer"
     id="layer1"
     transform="translate(-0.29307835,0.09968873)">
    <g
       aria-label="ANIME
WAS A
MISTAKE"
       transform="matrix(0.26458333,0,0,0.26458333,-70.341369,-25.513393)"
       style="font-style:normal;font-variant:normal;font-weight:normal;font-stretch:normal;font-size:40px;line-height:1.25;font-family:'Super Mario 256';-inkscape-font-specification:'Super Mario 256, ';letter-spacing:0px;word-spacing:0px;fill:#000000;fill-opacity:1;stroke:none"
       id="flowRoot3699">
      <path
         d="m 313.67484,96.451797 12.64,27.560003 -12.08,1.92 -0.96,-7.08 -9.72,-0.24 -2.2,7.56 -11.64,-2.08 15.96,-26.840003 8,-0.8 z m -5.96,10.480003 -1.64,4.08 6.12,0.16 -1.4,-4.12 -3.08,-0.12 z"
         style="font-style:normal;font-variant:normal;font-weight:bold;font-stretch:normal;font-family:'Super Mario 256';-inkscape-font-specification:'Super Mario 256 Bold';text-align:center;text-anchor:middle"
         id="path3749" />
      <path
         d="m 324.46484,125.5718 5.32,-29.160003 h 6.04 l 5.64,9.280003 0.48,-9.280003 9.28,1.44 -1.96,28.080003 -7.68,-0.48 -5.92,-9.04 -1.72,9.56 -9.48,-0.4 z"
         style="font-style:normal;font-variant:normal;font-weight:bold;font-stretch:normal;font-family:'Super Mario 256';-inkscape-font-specification:'Super Mario 256 Bold';text-align:center;text-anchor:middle"
         id="path3751" />
      <path
         d="m 352.16484,96.531797 7.76,-0.48 6,28.320003 -12.72,1.4 -1.04,-29.240003 z"
         style="font-style:normal;font-variant:normal;font-weight:bold;font-stretch:normal;font-family:'Super Mario 256';-inkscape-font-specification:'Super Mario 256 Bold';text-align:center;text-anchor:middle"
         id="path3753" />
      <path
         d="m 366.57422,123.0518 14.28,-26.440003 h 8.44 l 2.8,8.000003 4.96,-8.040003 7.48,-0.16 8.2,28.760003 -10.68,0.88 -2.04,-7.28 -2.44,-7.04 -7.36,6.56 -5.64,-7.48 -6.76,14.36 -11.24,-2.12 z"
         style="font-style:normal;font-variant:normal;font-weight:bold;font-stretch:normal;font-family:'Super Mario 256';-inkscape-font-specification:'Super Mario 256 Bold';text-align:center;text-anchor:middle"
         id="path3755" />
      <path
         d="m 414.98422,96.291797 h 19.6 l -1.64,8.280003 -9.64,1.48 -0.12,2.04 8.52,0.64 -0.4,6.36 -7.6,0.68 0.68,2.16 9.24,0.08 3.4,7.96 h -22.04 l -2.16,-19.12 2.16,-10.560003 z"
         style="font-style:normal;font-variant:normal;font-weight:bold;font-stretch:normal;font-family:'Super Mario 256';-inkscape-font-specification:'Super Mario 256 Bold';text-align:center;text-anchor:middle"
         id="path3757" />
      <path
         d="m 332.88953,149.0918 -12.76,26.76 h -7.44 l -2.76,-8.04 -4.08,8.08 -6.8,0.2 -7.28,-28.92 9.52,-0.84 1.8,7.28 2.16,7.08 6.6,-6.6 5,7.52 6.04,-14.68 10,2.16 z"
         style="font-style:normal;font-variant:normal;font-weight:bold;font-stretch:normal;font-family:'Super Mario 256';-inkscape-font-specification:'Super Mario 256 Bold';text-align:center;text-anchor:middle"
         id="path3759" />
      <path
         d="m 350.97953,146.4518 12.64,27.56 -12.08,1.92 -0.96,-7.08 -9.72,-0.24 -2.2,7.56 -11.64,-2.08 15.96,-26.84 8,-0.8 z m -5.96,10.48 -1.64,4.08 6.12,0.16 -1.4,-4.12 -3.08,-0.12 z"
         style="font-style:normal;font-variant:normal;font-weight:bold;font-stretch:normal;font-family:'Super Mario 256';-inkscape-font-specification:'Super Mario 256 Bold';text-align:center;text-anchor:middle"
         id="path3761" />
      <path
         d="m 390.76953,153.8518 -5.16,6.36 -6.04,-3.88 -1.52,1.92 10.8,7.92 -5.24,9.88 h -12.84 l -8.96,-7.12 3.88,-6.52 7.72,4.36 1.16,-1.8 -11.32,-6.72 10.72,-12 h 9.64 l 7.16,7.6 z"
         style="font-style:normal;font-variant:normal;font-weight:bold;font-stretch:normal;font-family:'Super Mario 256';-inkscape-font-specification:'Super Mario 256 Bold';text-align:center;text-anchor:middle"
         id="path3763" />
      <path
         d="m 428.87016,146.4518 12.64,27.56 -12.08,1.92 -0.96,-7.08 -9.72,-0.24 -2.2,7.56 -11.64,-2.08 15.96,-26.84 8,-0.8 z m -5.96,10.48 -1.64,4.08 6.12,0.16 -1.4,-4.12 -3.08,-0.12 z"
         style="font-style:normal;font-variant:normal;font-weight:bold;font-stretch:normal;font-family:'Super Mario 256';-inkscape-font-specification:'Super Mario 256 Bold';text-align:center;text-anchor:middle"
         id="path3765" />
      <path
         d="m 266.96484,223.0518 14.28,-26.44 h 8.44 l 2.8,8 4.96,-8.04 7.48,-0.16 8.2,28.76 -10.68,0.88 -2.04,-7.28 -2.44,-7.04 -7.36,6.56 -5.64,-7.48 -6.76,14.36 -11.24,-2.12 z"
         style="font-style:normal;font-variant:normal;font-weight:bold;font-stretch:normal;font-family:'Super Mario 256';-inkscape-font-specification:'Super Mario 256 Bold';text-align:center;text-anchor:middle"
         id="path3767" />
      <path
         d="m 313.41484,196.5318 7.76,-0.48 6,28.32 -12.72,1.4 -1.04,-29.24 z"
         style="font-style:normal;font-variant:normal;font-weight:bold;font-stretch:normal;font-family:'Super Mario 256';-inkscape-font-specification:'Super Mario 256 Bold';text-align:center;text-anchor:middle"
         id="path3769" />
      <path
         d="m 356.82422,203.8518 -5.16,6.36 -6.04,-3.88 -1.52,1.92 10.8,7.92 -5.24,9.88 h -12.84 l -8.96,-7.12 3.88,-6.52 7.72,4.36 1.16,-1.8 -11.32,-6.72 10.72,-12 h 9.64 l 7.16,7.6 z"
         style="font-style:normal;font-variant:normal;font-weight:bold;font-stretch:normal;font-family:'Super Mario 256';-inkscape-font-specification:'Super Mario 256 Bold';text-align:center;text-anchor:middle"
         id="path3771" />
      <path
         d="m 356.96484,196.4118 29.56,0.52 v 12 l -10,-1.64 2.76,18.84 h -14.32 l 2.16,-18.84 -10.16,-0.52 v -10.36 z"
         style="font-style:normal;font-variant:normal;font-weight:bold;font-stretch:normal;font-family:'Super Mario 256';-inkscape-font-specification:'Super Mario 256 Bold';text-align:center;text-anchor:middle"
         id="path3773" />
      <path
         d="m 406.56547,196.4518 12.64,27.56 -12.08,1.92 -0.96,-7.08 -9.72,-0.24 -2.2,7.56 -11.64,-2.08 15.96,-26.84 8,-0.8 z m -5.96,10.48 -1.64,4.08 6.12,0.16 -1.4,-4.12 -3.08,-0.12 z"
         style="font-style:normal;font-variant:normal;font-weight:bold;font-stretch:normal;font-family:'Super Mario 256';-inkscape-font-specification:'Super Mario 256 Bold';text-align:center;text-anchor:middle"
         id="path3775" />
      <path
         d="m 417.91547,196.4518 h 8.36 l -0.2,8.08 6.28,-7.16 5.72,6.08 -7.24,7.88 10.72,7.64 -6.6,7.12 -8.96,-9.72 1.64,9.8 h -10.28 l 0.56,-29.72 z"
         style="font-style:normal;font-variant:normal;font-weight:bold;font-stretch:normal;font-family:'Super Mario 256';-inkscape-font-specification:'Super Mario 256 Bold';text-align:center;text-anchor:middle"
         id="path3777" />
      <path
         d="m 443.73422,196.2918 h 19.6 l -1.64,8.28 -9.64,1.48 -0.12,2.04 8.52,0.64 -0.4,6.36 -7.6,0.68 0.68,2.16 9.24,0.08 3.4,7.96 h -22.04 l -2.16,-19.12 2.16,-10.56 z"
         style="font-style:normal;font-variant:normal;font-weight:bold;font-stretch:normal;font-family:'Super Mario 256';-inkscape-font-specification:'Super Mario 256 Bold';text-align:center;text-anchor:middle"
         id="path3779" />
    </g>
  </g>
</svg>
